<?xml version="1.0" encoding="UTF-8"?>
<svg version="1.1" xmlns="http://www.w3.org/2000/svg" width="1024" height="1024">
<path d="M0 0 C337.92 0 675.84 0 1024 0 C1024 337.92 1024 675.84 1024 1024 C686.08 1024 348.16 1024 0 1024 C0 686.08 0 348.16 0 0 Z " fill="#FDFDFD" transform="translate(0,0)"/>
<path d="M0 0 C3.46199324 0.0511553 6.92300136 0.00353744 10.3850441 -0.02772331 C16.19681947 -0.06397311 22.00349042 -0.01656786 27.81448746 0.07908821 C34.50559181 0.18797008 41.18451592 0.15269896 47.8753252 0.0425601 C53.65000516 -0.04864066 59.42104712 -0.0608138 65.19621563 -0.00866652 C68.63241187 0.02229954 72.06290809 0.02735008 75.49872208 -0.03939629 C96.26090665 -0.31640716 96.26090665 -0.31640716 102.04771614 4.6850071 C105.94847696 9.46321428 108.5163197 14.69564382 110.79567051 20.39788055 C111.95569058 23.22305105 113.44558064 25.75395238 115.08304214 28.32713509 C115.98863193 29.86321519 116.89358441 31.3996712 117.79788589 32.93651009 C121.61715748 39.41470801 125.44586446 45.88714723 129.29007339 52.35057259 C138.31467271 67.5252548 147.2959664 82.72196996 156.16678238 97.98729134 C162.34585281 108.63083308 162.34585281 108.63083308 168.67288589 119.18651009 C172.64343301 125.74727399 176.43223288 132.40663667 180.21564102 139.0766468 C186.06256364 149.38220882 192.04343409 159.58434747 198.23538589 169.68651009 C203.9782561 179.05786596 209.56053385 188.50239249 214.98538589 198.06151009 C215.31811508 198.64768105 215.65084427 199.23385201 215.99365616 199.83778572 C216.32406906 200.41990822 216.65448196 201.00203072 216.99490738 201.60179329 C226.23281722 217.87255262 235.86004628 233.90511681 245.5034523 249.93773079 C249.23654221 256.15486196 252.89001002 262.40237916 256.45413589 268.71776009 C260.12225371 275.15453387 263.95659925 281.4962893 267.74472427 287.86293221 C271.75945459 294.61437227 275.74140857 301.37743846 279.54788589 308.24901009 C283.89790249 316.09219069 288.59821992 323.70796275 293.29837418 331.34471321 C301.10671303 344.06941357 308.64438082 356.94417066 316.08450699 369.88694954 C323.60552114 382.96148363 331.27395926 395.94832931 339.04788589 408.87401009 C357.59034579 439.70449367 357.59034579 439.70449367 364.48538589 452.12401009 C369.12715769 460.48139401 374.07015846 468.65139291 379.01419449 476.83250618 C380.90261733 479.9638059 382.78265596 483.10003586 384.66116714 486.23729134 C385.32745132 487.34983284 385.9937355 488.46237434 386.68021011 489.60862923 C387.97774429 491.77558442 389.27496113 493.94272968 390.57181168 496.11009407 C393.22608879 500.53829045 395.89173062 504.94856741 398.67679214 509.29588509 C400.73538589 512.68651009 400.73538589 512.68651009 400.73538589 514.68651009 C377.73310616 515.01532291 354.73122047 515.26128696 331.72705746 515.41188049 C321.04274935 515.48370106 310.35991146 515.58139326 299.676548 515.74266243 C290.35158985 515.88335742 281.02769745 515.97279251 271.70170718 516.00374901 C266.77491458 516.02181218 261.85116737 516.06343727 256.92536354 516.16673088 C233.60771331 516.63666441 216.32648023 515.59166362 196.44073296 502.44016075 C192.16428302 499.66809525 187.67054355 497.32500805 183.17288589 494.93651009 C181.41637312 493.97404314 179.66103243 493.00943176 177.90726089 492.04197884 C168.49331113 486.89562239 158.98788224 481.91828295 149.4968605 476.91600227 C143.26880453 473.63145298 137.04730523 470.34316321 130.90701675 466.89622688 C126.27443153 464.31562432 121.59135695 461.82640602 116.92288589 459.31151009 C110.6382843 455.92110794 104.36649842 452.53576418 98.23538589 448.87401009 C93.39134655 445.99566787 88.39682182 443.48985125 83.34305191 441.00853157 C77.53470981 438.1351444 71.85003811 435.05999717 66.17288589 431.93651009 C58.5746758 427.75716446 50.93544317 423.67511361 43.23538589 419.68651009 C35.42411216 415.63439519 27.65185502 411.51868427 19.92288589 407.31151009 C19.04632339 406.83584602 18.16976089 406.36018196 17.26663589 405.87010384 C12.97722645 403.5250515 8.74984466 401.11110858 4.57132339 398.57322884 C0.52544236 396.1250616 -3.57175826 393.93086805 -7.82711411 391.87401009 C-13.82082211 388.91974468 -19.78058798 385.90818011 -25.70211411 382.81151009 C-26.44211655 382.43018929 -27.18211899 382.04886848 -27.94454575 381.65599251 C-33.14829303 378.91915225 -33.14829303 378.91915225 -34.26461411 376.68651009 C-19.20218857 376.51291923 -4.13968874 376.34664712 10.92288589 376.18651009 C12.59805975 376.16869421 12.59805975 376.16869421 14.3070755 376.15051842 C44.6793316 375.82940112 75.04879707 375.58862452 105.42288589 375.62401009 C106.53340128 375.62529411 106.53340128 375.62529411 107.66635132 375.62660408 C116.35605582 375.63744579 125.04572441 375.65657453 133.73538589 375.68651009 C132.80303834 373.8017813 131.86832445 371.91822302 130.93265152 370.0351429 C130.41239395 368.98610786 129.89213638 367.93707283 129.35611343 366.85624886 C126.84023832 361.93582474 124.05033205 357.19020311 121.23538589 352.43651009 C119.99306408 350.32330779 118.75088042 348.21002428 117.50882339 346.09666634 C116.88072769 345.03077278 116.25263199 343.96487923 115.60550308 342.86668587 C113.24709302 338.85615722 110.90791363 334.8346205 108.56937027 330.81248665 C103.00390624 321.24306879 97.38677225 311.70541985 91.73538589 302.18651009 C84.33655071 289.72428577 77.0229602 277.21403009 69.73538589 264.68651009 C53.30181402 236.41676122 53.30181402 236.41676122 36.48538589 208.37401009 C36.0191481 207.60846809 35.55291031 206.8429261 35.0725441 206.05418587 C33.14707568 202.68758266 33.14707568 202.68758266 30.73538589 199.68651009 C29.99288589 201.41901009 29.99288589 201.41901009 29.23538589 203.18651009 C25.98320121 210.47588954 22.35884053 217.57696403 18.73538589 224.68651009 C17.98007584 226.17030159 17.98007584 226.17030159 17.20950699 227.68406868 C9.60707158 242.58070226 1.70956238 257.25747895 -6.60396957 271.76805305 C-8.94732417 275.88632133 -11.24503744 280.02951211 -13.54635239 284.17137337 C-18.82674542 293.66797274 -24.22375245 303.06996363 -29.85982895 312.35984993 C-33.48863785 318.35216733 -36.99359495 324.40696984 -40.45211411 330.49901009 C-44.18751857 337.07806835 -47.97904895 343.61161922 -51.89986801 350.08177376 C-54.94504849 355.11887829 -57.89074094 360.21035813 -60.82711411 365.31151009 C-64.4289921 371.56025526 -68.10738013 377.74505382 -71.91695786 383.87010384 C-75.19561969 389.16914633 -78.37692692 394.52738497 -81.57711411 399.87401009 C-86.50928343 408.11096464 -91.4709056 416.327958 -96.48922348 424.51268196 C-99.20964321 428.95211505 -101.90543173 433.40509199 -104.57711411 437.87401009 C-108.27627897 444.05904714 -112.01516706 450.21933656 -115.76461411 456.37401009 C-116.34767319 457.33170296 -116.93073227 458.28939583 -117.53145981 459.2761097 C-120.54809665 464.23019898 -123.56724842 469.18273114 -126.59115219 474.13238716 C-128.11220625 476.62332247 -129.63109552 479.11557373 -131.14962387 481.60804939 C-131.88094359 482.80733286 -132.61317181 484.0060629 -133.34640121 485.20417976 C-134.38404773 486.89994321 -135.41811554 488.59789483 -136.45211411 490.29588509 C-137.10623276 491.36322884 -137.76035141 492.43057259 -138.43429184 493.53026009 C-140.21316235 496.59778549 -141.71257877 499.72180398 -143.23727036 502.92088509 C-145.63305833 507.35740994 -145.63305833 507.35740994 -148.17428207 508.68162727 C-150.40736648 509.12165935 -152.42725803 509.21166146 -154.70211411 509.18651009 C-156.32089629 509.26535114 -157.9394021 509.35006845 -159.55758286 509.44041634 C-160.357285 509.47280403 -161.15698715 509.50519173 -161.9809227 509.53856087 C-165.23737695 509.74953064 -168.33370506 510.41281685 -171.51461411 511.12401009 C-177.27204241 512.3478404 -182.98825996 513.20651672 -188.82711411 513.93651009 C-201.01463957 515.49096298 -213.05349677 517.79315517 -225.12374496 520.05955696 C-235.26470351 521.96200231 -245.4095699 523.78165146 -255.60787582 525.35618782 C-261.21574909 526.24716332 -266.64734711 527.50774312 -272.1449852 528.92381477 C-278.55645061 530.49130718 -285.064593 531.59743257 -291.55367661 532.79197884 C-297.87666415 533.97659584 -304.10918834 535.33799102 -310.3402977 536.93699837 C-315.07046254 538.14935486 -319.82120101 539.26775061 -324.57711411 540.37401009 C-325.51361801 540.59895149 -326.45012192 540.8238929 -327.41500473 541.05565071 C-332.49693569 542.23225542 -337.0483374 542.95272007 -342.26461411 542.68651009 C-333.9594054 524.95207947 -323.48500508 508.32010845 -313.38741684 491.56956673 C-309.91699632 485.80421896 -306.5515801 479.99020418 -303.23336411 474.13572884 C-301.06765543 470.34144161 -298.85965771 466.57416078 -296.63961411 462.81151009 C-290.75933421 452.84279525 -284.93314876 442.84275715 -279.10543442 432.84324837 C-277.25132155 429.6637153 -275.39501411 426.48547334 -273.53805161 423.30760384 C-268.04577162 413.90623297 -262.56869758 404.49903294 -257.18648911 395.03416634 C-254.48790359 390.3335814 -251.72990224 385.66868157 -248.97457504 381.00120735 C-246.36944398 376.5821813 -243.80088046 372.14542997 -241.26461411 367.68651009 C-237.66637403 361.36643296 -233.98974989 355.0955743 -230.29586411 348.83104134 C-226.46308474 342.33032112 -222.64454337 335.82125134 -218.82711411 329.31151009 C-218.45888535 328.68367622 -218.09065659 328.05584236 -217.71126938 327.40898323 C-212.72470499 318.90521269 -207.75517757 310.39192103 -202.839077 301.84715462 C-200.23774582 297.33344404 -197.57791481 292.85802723 -194.89181137 288.39427376 C-191.85202338 283.33586587 -188.83900296 278.26156506 -185.82711411 273.18651009 C-185.3116301 272.31794884 -185.3116301 272.31794884 -184.78573227 271.4318409 C-178.99258859 261.66435054 -173.3007857 251.84217097 -167.64547348 241.99412727 C-163.29280186 234.42898972 -158.842817 226.92874754 -154.33004379 219.4582386 C-150.91995731 213.80586378 -147.63065105 208.09899356 -144.37789536 202.35447884 C-141.80894041 197.85912082 -139.12573344 193.43261404 -136.45211411 188.99901009 C-131.97887583 181.57907012 -127.58956661 174.11644543 -123.26266098 166.61033821 C-119.95182334 160.8674362 -116.60517751 155.14694429 -113.23580551 149.43821907 C-110.81507033 145.33294198 -108.40968716 141.21924736 -106.01852036 137.09666634 C-99.57039635 125.98580066 -93.02259169 114.94943279 -86.31344223 103.99412727 C-81.25204379 95.71157954 -76.38358539 87.32694318 -71.54830551 78.91111946 C-68.23665487 73.17210069 -64.85622852 67.47303301 -61.48971176 61.76609993 C-60.26997669 59.69561302 -59.05382774 57.62306291 -57.83883286 55.54979134 C-44.11682348 32.14521141 -44.11682348 32.14521141 -40.17965317 26.04661751 C-38.61466982 23.30071416 -37.46514826 20.7609263 -36.29851913 17.84527779 C-28.57000509 0.22973961 -18.03094803 -0.35028097 0 0 Z " fill="#010101" transform="translate(487.2646141052246,191.31348991394043)"/>
<path d="M0 0 C15.61789706 -0.74370938 30.61092884 1.49519071 46 4 C46.84997559 4.1330957 47.69995117 4.26619141 48.57568359 4.40332031 C61.77154869 6.48371077 73.95713094 10.43014137 86.0625 16 C86.7649585 16.3199292 87.46741699 16.6398584 88.19116211 16.96948242 C93.85846531 19.66998202 98.45353047 22.6802957 102 28 C102.55249178 32.81457122 102.63353567 34.94410722 100.125 39.125 C76.48322133 63.42349475 25.68294188 66.52755625 -6 71 C-7.05364746 71.15065918 -8.10729492 71.30131836 -9.19287109 71.45654297 C-25.17792619 73.7075484 -41.24417646 75.12415974 -57.3323946 76.3929491 C-58.17207877 76.45919326 -59.01176294 76.52543741 -59.87689209 76.59368896 C-60.7263868 76.66068245 -61.5758815 76.72767593 -62.45111847 76.79669952 C-64.90159714 76.99215132 -67.35149718 77.19367122 -69.80133057 77.39703369 C-101.33488054 79.99245628 -132.72529926 80.43667235 -164.35394287 80.3225708 C-169.36387573 80.30919152 -174.37371864 80.31439988 -179.38366127 80.31945324 C-209.76389805 80.34229024 -240.06200323 79.73415022 -270.41063023 78.34051228 C-276.4873805 78.06170829 -282.56287238 77.82682098 -288.64338684 77.64489746 C-305.38567403 77.13987648 -322.10562778 76.06971567 -338.82580566 75.10084534 C-340.00090698 75.03276169 -341.1760083 74.96467804 -342.38671875 74.89453125 C-343.59404663 74.82455429 -344.80137451 74.75457733 -346.04528809 74.68247986 C-355.62158795 74.13031753 -365.19911611 73.6033836 -374.77726173 73.08438301 C-377.26035848 72.94971622 -379.74342724 72.81454545 -382.22648621 72.67918396 C-383.04358346 72.6346449 -383.86068071 72.59010584 -384.70253849 72.54421711 C-386.34923418 72.45444458 -387.995929 72.36465617 -389.64262295 72.2748518 C-393.72050468 72.05269466 -397.79845187 71.83189263 -401.8765564 71.61386108 C-405.73657715 71.40745722 -409.59640051 71.1976794 -413.45610619 70.98546791 C-414.88756581 70.9074034 -416.31909559 70.83061361 -417.75069618 70.75517845 C-419.72199708 70.65115531 -421.6930382 70.54224399 -423.6640625 70.43310547 C-424.77217285 70.37331512 -425.8802832 70.31352478 -427.02197266 70.25192261 C-429.7573811 70.02052405 -432.31332597 69.53911684 -435 69 C-436.63484298 68.90125263 -438.27268553 68.84519462 -439.91040039 68.82641602 C-440.85810806 68.81292618 -441.80581573 68.79943634 -442.78224182 68.78553772 C-443.79382858 68.77509933 -444.80541534 68.76466095 -445.84765625 68.75390625 C-448.00065537 68.72098514 -450.15365006 68.68777322 -452.30664062 68.65429688 C-455.69276052 68.60679225 -459.07886027 68.56231101 -462.46508789 68.52319336 C-465.73862639 68.48352994 -469.0118118 68.43199261 -472.28515625 68.37890625 C-473.29876724 68.3704921 -474.31237823 68.36207794 -475.35670471 68.35340881 C-476.77353798 68.32844582 -476.77353798 68.32844582 -478.21899414 68.30297852 C-479.04774551 68.29267105 -479.87649689 68.28236359 -480.73036194 68.27174377 C-483.20295339 67.97570039 -484.85560423 67.23665946 -487 66 C-487 65.67 -487 65.34 -487 65 C-492.57710648 63.93204344 -497.39436958 64.17377329 -503 65 C-502.25 60.25 -502.25 60.25 -500 58 C-497.93359375 57.62109375 -497.93359375 57.62109375 -495.4375 57.4375 C-491.99344129 57.16874397 -488.6061116 56.80578959 -485.1875 56.3125 C-481.60458473 55.89322268 -479.23529899 56.22580378 -476 58 C-476 57.34 -476 56.68 -476 56 C-471.26028183 54.18463016 -466.75924719 53.54995857 -461.734375 53.21875 C-460.54597015 53.13022766 -460.54597015 53.13022766 -459.33355713 53.03991699 C-456.80617145 52.85268488 -454.27821283 52.67567788 -451.75 52.5 C-448.45278411 52.2649471 -445.15594579 52.02518165 -441.859375 51.78125 C-440.62965469 51.69037865 -440.62965469 51.69037865 -439.37509155 51.59767151 C-431.57311223 51.00216252 -423.81032362 50.13493649 -416.03881836 49.2333374 C-380.49396253 45.16532208 -344.6344665 43.03143202 -308.875 42.2109375 C-304.29528238 42.09392912 -299.74031057 41.86717709 -295.17016602 41.55224609 C-253.36107176 38.85564281 -211.42198349 38.83642216 -169.54627657 38.80034828 C-165.75216659 38.79687341 -161.95806002 38.79217407 -158.16395187 38.78709412 C-133.91409794 38.75512908 -109.66431201 38.73890069 -85.41445876 38.77284035 C-74.31674117 38.78781192 -63.21917121 38.77948163 -52.12147468 38.75222325 C-44.74262492 38.73522847 -37.36441789 38.74396424 -29.98561013 38.77227831 C-25.43012188 38.78342964 -20.87496724 38.76954202 -16.31952477 38.74846077 C-14.21563604 38.74369447 -12.11169492 38.74913924 -10.00786591 38.76569176 C3.80293718 39.29426979 3.80293718 39.29426979 15.77372837 33.2864418 C16.38073283 32.64965311 16.38073283 32.64965311 17 32 C15.64238646 28.53195934 14.15550331 25.35209416 12.28515625 22.12890625 C11.76373047 21.22462891 11.24230469 20.32035156 10.70507812 19.38867188 C10.16302734 18.45603516 9.62097656 17.52339844 9.0625 16.5625 C2.55397786 5.33042767 2.55397786 5.33042767 0 0 Z " fill="#141414" transform="translate(886,676)"/>
<path d="M0 0 C26.66436668 -1.76701461 44.80635499 0.96687872 66.93041992 16.33276367 C68.04813805 17.0603372 69.16629808 17.78723237 70.28491211 18.51342773 C71.59443848 19.41399902 71.59443848 19.41399902 72.93041992 20.33276367 C72.93041992 20.66276367 72.93041992 20.99276367 72.93041992 21.33276367 C71.65255615 21.35258301 70.37469238 21.37240234 69.05810547 21.39282227 C39.36653315 21.86496297 9.70724013 22.66537615 -19.96063232 23.94572449 C-25.68806347 24.19267015 -31.41562904 24.4248745 -37.14451599 24.6353302 C-85.81246823 26.42930226 -134.47403358 29.99511864 -182.94702148 34.66352844 C-190.86789649 35.42125177 -198.79672829 36.07016894 -206.7277832 36.71090698 C-226.73475766 38.32913391 -246.71090817 40.19874116 -266.61645508 42.80541992 C-272.98186451 43.59417718 -279.37332533 44.15307696 -285.75708008 44.77026367 C-295.02201971 45.6721967 -304.24377632 46.67730828 -313.44848633 48.06689453 C-319.34945509 48.95441562 -325.25739507 49.76128597 -331.17504883 50.52807617 C-331.99756134 50.63485687 -332.82007385 50.74163757 -333.66751099 50.85165405 C-337.00263452 51.28394681 -340.3378368 51.71550188 -343.67382812 52.14105225 C-353.10876518 53.34532104 -362.49765699 54.68951949 -371.87419128 56.28895569 C-377.42606426 57.23517715 -382.98340794 58.05206568 -388.56958008 58.77026367 C-419.69828866 62.92130905 -450.66937204 68.21417453 -481.47705078 74.29101562 C-488.28406275 75.62658261 -495.08390291 76.8711487 -501.94458008 77.89526367 C-520.00630656 80.61499837 -537.84479409 84.68098351 -555.69458008 88.52026367 C-556.91331818 88.78158585 -556.91331818 88.78158585 -558.15667725 89.04818726 C-560.4954224 89.5505144 -562.83339294 90.05629481 -565.17114258 90.56323242 C-565.86500061 90.71203857 -566.55885864 90.86084473 -567.27374268 91.01416016 C-570.51204452 91.72046173 -573.6481021 92.51404699 -576.81323242 93.50585938 C-579.86848093 94.28169733 -581.2045539 94.47877414 -584.06958008 93.33276367 C-567.39169063 88.02239091 -550.55710437 83.52608323 -533.59741211 79.2331543 C-528.0949315 77.82878416 -522.60742501 76.36793303 -517.12719727 74.87915039 C-512.64843932 73.68184791 -508.15301314 72.73288106 -503.60302734 71.84643555 C-499.52228161 71.01903948 -495.48789198 70.01203433 -491.44458008 69.02026367 C-482.70390974 66.90631081 -473.93190585 65.00065514 -465.11987305 63.20849609 C-457.64711718 61.6844213 -450.20424253 60.04071417 -442.76123047 58.37890625 C-423.24336628 54.02151754 -403.70372003 49.76122782 -384.06958008 45.95776367 C-382.84408447 45.71944824 -381.61858887 45.48113281 -380.35595703 45.2355957 C-374.94522433 44.20088879 -369.53783875 43.23090086 -364.08911133 42.41870117 C-358.21164602 41.53837205 -352.36675836 40.51316744 -346.51879883 39.45776367 C-345.5686087 39.28659027 -344.61841858 39.11541687 -343.63943481 38.9390564 C-339.68861281 38.22621065 -335.73813302 37.51156236 -331.78857422 36.79174805 C-312.69734608 33.31745721 -312.69734608 33.31745721 -303.65161133 32.27026367 C-298.45729952 31.66874029 -293.34664509 30.8702111 -288.21801758 29.86010742 C-280.22146416 28.29217379 -272.19259155 27.21115544 -264.10925293 26.19818115 C-259.93575414 25.67462131 -255.76426215 25.13567415 -251.59301758 24.59448242 C-250.76914551 24.48763123 -249.94527344 24.38078003 -249.09643555 24.27069092 C-242.15256085 23.3613326 -235.23478897 22.31402491 -228.31958008 21.20776367 C-219.15333777 19.75280458 -209.98641096 18.56024506 -200.76147461 17.54492188 C-194.19343471 16.81882867 -187.6374485 16.03169603 -181.08520508 15.17651367 C-158.64353293 12.2583029 -136.19913511 9.93321417 -113.65086365 8.00585938 C-108.77177949 7.58457421 -103.90110345 7.11459404 -99.03108215 6.59951782 C-86.07104294 5.23619257 -73.08217753 4.37528245 -60.07958984 3.52783203 C-56.14172958 3.27089329 -52.20427783 3.00828331 -48.2668457 2.74487305 C-35.50283032 1.8981909 -22.74183122 1.11245741 -9.96142578 0.56201172 C-6.6372598 0.41590777 -3.31976247 0.22470954 0 0 Z " fill="#060606" transform="translate(618.069580078125,685.667236328125)"/>
<path d="M0 0 C5.03987242 3.46080012 7.59314425 7.13720031 10.375 12.5 C11.15140566 13.93871117 11.93008528 15.37619732 12.7109375 16.8125 C13.09475586 17.52277344 13.47857422 18.23304688 13.87402344 18.96484375 C15.48324129 21.87343871 17.23345972 24.68479637 19 27.5 C21.82985213 32.0444096 24.52184372 36.63674449 27.125 41.3125 C31.45367366 49.08508546 35.92886399 56.76765115 40.42211914 64.44604492 C44.83308796 71.98813729 49.20552245 79.55160905 53.5625 87.125 C58.84131839 96.29645994 64.18589354 105.42597458 69.58496094 114.52709961 C72.36930082 119.22491982 75.1221201 123.93527874 77.8125 128.6875 C81.69648439 135.53579382 85.72574897 142.29595642 89.75 149.0625 C94.57076879 157.16880237 99.34806346 165.29514895 104 173.5 C112.19479213 187.94818882 120.7211347 202.20575213 129.265625 216.44921875 C129.74499512 217.24851807 130.22436523 218.04781738 130.71826172 218.87133789 C131.7707749 220.61931169 132.83323456 222.36129267 133.8984375 224.1015625 C137.14431416 229.64874854 139.22307403 233.5510642 138 240 C135.32627266 243.30697855 133.10277356 245.66718692 128.828125 246.34375 C127.97734375 246.3953125 127.1265625 246.446875 126.25 246.5 C125.40953125 246.5721875 124.5690625 246.644375 123.703125 246.71875 C116.97661209 244.93019743 113.40679087 236.60728218 110.13049316 230.99597168 C109.06212408 229.14544179 107.99979422 227.29152262 106.9375 225.4375 C106.18486447 224.13642857 105.4314365 222.83581526 104.67724609 221.53564453 C103.16193924 218.92256045 101.64958647 216.30780227 100.13916016 213.69189453 C97.17321851 208.56330435 94.14973141 203.46906616 91.125 198.375 C84.74657422 187.60122531 78.47477541 176.76776694 72.22509766 165.91894531 C70.29627602 162.57074578 68.36704469 159.22278289 66.4375 155.875 C65.79562744 154.76125 65.15375488 153.6475 64.49243164 152.5 C60.48251478 145.54927204 56.44012958 138.61911715 52.35742188 131.7109375 C49.84468939 127.45407305 47.37704943 123.17417141 44.9375 118.875 C42.2720464 114.18784507 39.54194551 109.54960545 36.75 104.9375 C32.48619005 97.89102273 28.39752894 90.7489384 24.33691406 83.58374023 C21.93859339 79.35907482 19.50950793 75.15974018 17 71 C13.97509962 65.98594944 11.07457201 60.90679899 8.1875 55.8125 C3.90067695 48.27741756 -0.47447436 40.80658723 -4.95703125 33.38671875 C-6.98929856 30.01774025 -9.0031988 26.6401067 -11 23.25 C-11.556875 22.30640625 -12.11375 21.3628125 -12.6875 20.390625 C-15.24674439 15.72914414 -15.84336175 11.22517608 -15 6 C-10.94199369 0.87409729 -6.6027191 -1.52545579 0 0 Z " fill="#F8F8F8" transform="translate(526,296)"/>
<path d="M0 0 C3.1118804 1.50309695 5.00385596 3.18948133 7 6 C8.66202811 12.14057305 6.78199155 17.04909413 3.80859375 22.44140625 C2.3893632 24.83944511 0.91661049 27.20108496 -0.5625 29.5625 C-1.33942543 30.83889068 -2.11421668 32.11658265 -2.88696289 33.39550781 C-4.46843534 36.00592182 -6.06141531 38.60870332 -7.66503906 41.20556641 C-10.50514374 45.80929627 -13.27859553 50.45153864 -16.05249023 55.09545898 C-17.91255251 58.20825067 -19.78146653 61.31557411 -21.65234375 64.421875 C-24.46404944 69.09780383 -27.24382503 73.79117442 -30 78.5 C-35.97051002 88.69579403 -42.07238925 98.81291681 -48.16015625 108.93896484 C-51.39860157 114.32691966 -54.6314943 119.7182049 -57.86499023 125.10913086 C-60.00288742 128.67301595 -62.14152864 132.2364332 -64.28515625 135.796875 C-71.48329059 147.75862371 -78.56778749 159.7874665 -85.65869141 171.81298828 C-93.81869648 185.65078458 -102.04616817 199.4460195 -110.33007812 213.20996094 C-111.16662927 214.60016846 -112.00290379 215.99054249 -112.83886719 217.38110352 C-113.91268665 219.16726537 -114.98754733 220.95280115 -116.0625 222.73828125 C-117.07723194 224.44654973 -118.08681011 226.15876468 -119.04003906 227.90209961 C-121.49677617 232.38628039 -123.04225963 234.37920026 -128 236 C-132.21222651 236.66203953 -135.21617552 236.48363638 -138.9375 234.1875 C-141.90681939 231.03822186 -142.60486921 227.76271899 -142.51953125 223.45703125 C-141.59354625 219.07774879 -138.95679606 215.61925778 -136.53125 211.9296875 C-133.55295558 207.38897038 -130.91510356 202.6664812 -128.25 197.9375 C-120.75281081 184.72934881 -112.89978254 171.74632959 -104.98730469 158.78393555 C-104.12733887 157.37494995 -104.12733887 157.37494995 -103.25 155.9375 C-102.6715332 154.98979736 -102.09306641 154.04209473 -101.49707031 153.06567383 C-96.20029149 144.36827033 -91.00560694 135.61147583 -85.82568359 126.84423828 C-81.86978099 120.1500029 -77.8891796 113.47192797 -73.875 106.8125 C-68.9056985 98.56210962 -64.05032532 90.24797443 -59.21044922 81.92114258 C-55.04987533 74.77277017 -50.81784474 67.67117958 -46.5456543 60.58911133 C-41.95997743 52.97066394 -37.4877548 45.28768651 -33.01757812 37.60107422 C-29.02943389 30.74881858 -25.00112791 23.92407774 -20.890625 17.14453125 C-19.66972542 15.11390282 -18.47010662 13.07025589 -17.296875 11.01171875 C-13.18308568 3.83336415 -9.3168023 -2.25009565 0 0 Z " fill="#F9F9F9" transform="translate(414,353)"/>
<path d="M0 0 C2.65683189 1.49748707 4.84652751 2.84652751 7 5 C7.93781262 13.30634037 5.33751915 18.0526947 1 25 C0.28447021 26.16103582 -0.43034859 27.32251005 -1.14453125 28.484375 C-2.53701777 30.74903721 -3.94443308 33.00146348 -5.36328125 35.25 C-7.10088713 37.94690285 -7.10088713 37.94690285 -8 41 C-8.66 41 -9.32 41 -10 41 C-10.22429687 41.81339844 -10.44859375 42.62679687 -10.6796875 43.46484375 C-12.32616731 47.8733178 -14.62627435 51.59149967 -17.125 55.5625 C-17.61492432 56.35245361 -18.10484863 57.14240723 -18.60961914 57.95629883 C-19.60100419 59.55413258 -20.59487338 61.15042791 -21.59130859 62.74511719 C-23.55276833 65.88481253 -25.49584808 69.03551515 -27.4375 72.1875 C-28.07300781 73.21875 -28.70851563 74.25 -29.36328125 75.3125 C-31.30912767 78.50758912 -33.15724454 81.74446536 -35 85 C-39.22484112 92.16544301 -43.62813428 99.21306937 -48.0625 106.25 C-53.73505559 115.27942271 -59.255768 124.38356142 -64.61157227 133.60449219 C-67.44639597 138.46472222 -70.41329731 143.18325861 -73.56420898 147.84448242 C-75.81749764 151.22728901 -77.90320586 154.70639503 -80 158.1875 C-84.44134352 165.48180894 -88.90993824 172.75886425 -93.4375 180 C-94.02853516 180.96188232 -94.61957031 181.92376465 -95.22851562 182.91479492 C-95.79119141 183.8091626 -96.35386719 184.70353027 -96.93359375 185.625 C-97.42915771 186.42164063 -97.92472168 187.21828125 -98.43530273 188.0390625 C-100.15417583 190.19321895 -101.43814374 191.03822729 -104 192 C-108.78103896 192.29881493 -112.77454063 191.93368333 -116.625 189 C-118.56375659 184.76998563 -118.93548231 181.57110672 -118 177 C-116.34084287 173.10779921 -114.224124 169.59246366 -112 166 C-111.0658741 164.4464139 -110.13378952 162.89159959 -109.203125 161.3359375 C-105.94382936 155.90125151 -102.66576612 150.4781847 -99.375 145.0625 C-98.46693604 143.56795288 -98.46693604 143.56795288 -97.54052734 142.04321289 C-93.63386521 135.63197915 -89.65929646 129.26904106 -85.625 122.9375 C-82.21849745 117.59068288 -78.9128981 112.21779219 -75.8125 106.6875 C-72.51643401 100.81488347 -68.96566689 95.17443652 -65.2734375 89.546875 C-62.9445012 85.96281081 -60.76479075 82.29383933 -58.57519531 78.62353516 C-55.99353168 74.32369676 -53.33677113 70.07088416 -50.6875 65.8125 C-43.72047226 54.58072918 -36.9208475 43.26099036 -30.20117188 31.87988281 C-29.07353603 29.97092868 -27.94464395 28.06271601 -26.81445312 26.15527344 C-24.29771709 21.90587284 -21.79287616 17.65206067 -19.34375 13.36328125 C-18.74336914 12.3259082 -18.74336914 12.3259082 -18.13085938 11.26757812 C-17.40356544 10.01020122 -16.68532143 8.7475226 -15.97851562 7.47851562 C-12.24614345 1.07909906 -7.38110915 -1.35512551 0 0 Z " fill="#F8F8F8" transform="translate(448,407)"/>
<path d="M0 0 C3.67687666 4.06391631 5.86323273 8.77928969 8.375 13.625 C15.06429334 26.09081761 22.27680423 38.22606589 29.5859375 50.3359375 C33.56185472 56.92362449 37.48079565 63.54383641 41.38769531 70.17260742 C44.35586922 75.2079347 47.33189485 80.23837229 50.3203125 85.26171875 C51.69305994 87.57010361 53.06542659 89.87871444 54.4375 92.1875 C54.77584869 92.75674194 55.11419739 93.32598389 55.46279907 93.91247559 C60.54232321 102.46461298 65.5343332 111.06178593 70.39477539 119.74047852 C73.0981066 124.53313042 75.97693908 129.14629522 79.06835938 133.69897461 C83.03409001 139.5445742 84.65547671 144.57650434 83.375 151.625 C80.84823961 154.97125024 79.33566458 156.30477847 75.375 157.625 C71.41559475 157.9916116 69.19413473 158.17686395 65.84667969 155.92163086 C63.33120806 153.58430948 61.87198005 151.5516755 60.203125 148.56640625 C59.34388428 147.0508313 59.34388428 147.0508313 58.46728516 145.50463867 C57.85933105 144.40998291 57.25137695 143.31532715 56.625 142.1875 C55.63122481 140.42701537 54.63360777 138.66874033 53.63601685 136.91041565 C52.94069989 135.68407772 52.24660662 134.45704524 51.55368042 133.22935486 C48.12165453 127.15221171 44.59932656 121.12968741 41.06018066 115.11447144 C39.99054293 113.29642598 38.92231045 111.4775619 37.85449219 109.65844727 C36.41416916 107.20482397 34.97339357 104.75146751 33.53222656 102.29833984 C29.97547726 96.24310576 26.4256952 90.18378527 22.875 84.125 C21.47012434 81.72782223 20.06518432 79.3306822 18.66015625 76.93359375 C18.31137924 76.33855042 17.96260223 75.74350708 17.60325623 75.13043213 C15.38951645 71.3541403 13.17406732 67.57885609 10.95748901 63.80422974 C9.43983691 61.21966179 7.92277955 58.63474496 6.40576172 56.04980469 C5.6943045 54.83788069 4.98256789 53.62612067 4.27050781 52.41455078 C0.17886997 45.45245341 -3.86662787 38.46694498 -7.85829163 31.44725037 C-9.57953051 28.42782143 -11.32790839 25.43236207 -13.15625 22.4765625 C-13.8059375 21.41179687 -14.455625 20.34703125 -15.125 19.25 C-16.13046875 17.62964844 -16.13046875 17.62964844 -17.15625 15.9765625 C-19.01404301 11.73723696 -19.0251936 9.21769802 -18.625 4.625 C-14.05731444 -2.87905485 -7.66465254 -4.01481799 0 0 Z " fill="#F8F8F8" transform="translate(639.625,381.375)"/>
<path d="M0 0 C5.66584494 2.820669 8.58603498 6.86729569 11.375 12.375 C12.14379836 13.81489046 12.91468213 15.25366914 13.6875 16.69140625 C14.07164062 17.41473145 14.45578125 18.13805664 14.8515625 18.88330078 C16.59091673 22.08912586 18.47585615 25.19954449 20.375 28.3125 C24.34842633 34.87076136 28.21725888 41.48619048 32.0300293 48.13916016 C34.05052109 51.66109194 36.07853325 55.16482199 38.25390625 58.59375 C44.28224206 68.2390873 44.28224206 68.2390873 43 75 C40.01470588 80.66176471 40.01470588 80.66176471 36 82 C30.49299775 82.35529047 27.54451108 82.43171611 23 79 C21.11328125 76.2421875 21.11328125 76.2421875 19.3125 72.875 C18.61593435 71.60082299 17.91795604 70.3274175 17.21875 69.0546875 C16.85652344 68.38791992 16.49429688 67.72115234 16.12109375 67.03417969 C14.25498095 63.64819279 12.28251932 60.32625783 10.3125 57 C9.47001327 55.57163748 8.62756678 54.14325122 7.78515625 52.71484375 C7.34187988 51.96444824 6.89860352 51.21405273 6.44189453 50.44091797 C4.85478651 47.75417465 3.26919298 45.06654025 1.68359375 42.37890625 C0.53915627 40.44004881 -0.60537397 38.50124613 -1.75 36.5625 C-2.28069092 35.66337891 -2.81138184 34.76425781 -3.3581543 33.83789062 C-3.87418213 32.96455078 -4.39020996 32.09121094 -4.921875 31.19140625 C-5.42614014 30.33466309 -5.93040527 29.47791992 -6.44995117 28.59521484 C-7.51432934 26.8131484 -8.59902489 25.04310826 -9.70043945 23.28369141 C-10.244021 22.41019043 -10.78760254 21.53668945 -11.34765625 20.63671875 C-11.84015869 19.85901123 -12.33266113 19.08130371 -12.84008789 18.2800293 C-14.74585141 14.53388628 -15.05994593 11.05409974 -14 7 C-10.52206812 0.93591364 -6.85420331 -0.67418393 0 0 Z " fill="#F8F8F8" transform="translate(674,549)"/>
<path d="M0 0 C-0.66 0.4125 -1.32 0.825 -2 1.25 C-2.66 1.8275 -3.32 2.405 -4 3 C-4 4.32 -4 5.64 -4 7 C-28.78875358 11.89041679 -28.78875358 11.89041679 -39.5625 13.5 C-57.72717816 16.25687827 -75.67010951 20.32561309 -93.625 24.1875 C-94.43749207 24.36171478 -95.24998413 24.53592957 -96.08709717 24.71542358 C-98.42584232 25.21775072 -100.76381286 25.72353114 -103.1015625 26.23046875 C-103.79542053 26.3792749 -104.48927856 26.52808105 -105.2041626 26.68139648 C-108.44246444 27.38769805 -111.57852202 28.18128331 -114.74365234 29.1730957 C-117.79890085 29.94893366 -119.13497382 30.14601047 -122 29 C-105.32211055 23.68962724 -88.48752429 19.19331956 -71.52783203 14.90039062 C-66.02535143 13.49602049 -60.53784493 12.03516936 -55.05761719 10.54638672 C-50.5932535 9.35293225 -46.11274963 8.4060115 -41.57739258 7.52246094 C-37.27428927 6.65018273 -33.01580412 5.59955712 -28.75 4.5625 C-25.16747486 3.70493165 -21.58389986 2.85180355 -18 2 C-16.88117432 1.73340576 -16.88117432 1.73340576 -15.73974609 1.46142578 C-13.80805262 1.00570455 -11.87288756 0.56476869 -9.9375 0.125 C-8.87402344 -0.11992188 -7.81054688 -0.36484375 -6.71484375 -0.6171875 C-4.07436047 -0.98951464 -2.49102333 -0.87215685 0 0 Z " fill="#161616" transform="translate(156,750)"/>
<path d="M0 0 C0.70189453 0.00451172 1.40378906 0.00902344 2.12695312 0.01367188 C3.85550538 0.02543073 5.58401365 0.04336546 7.3125 0.0625 C7.3125 0.3925 7.3125 0.7225 7.3125 1.0625 C5.97445312 1.26166016 5.97445312 1.26166016 4.609375 1.46484375 C3.43890625 1.64144531 2.2684375 1.81804688 1.0625 2 C-0.67773438 2.26103516 -0.67773438 2.26103516 -2.453125 2.52734375 C-4.91856961 2.9352736 -7.28174562 3.40151303 -9.6875 4.0625 C-10.0175 5.3825 -10.3475 6.7025 -10.6875 8.0625 C-10.11902344 7.96710937 -9.55054688 7.87171875 -8.96484375 7.7734375 C-3.55781645 6.99713642 0.17324628 7.20362099 5.3125 9.0625 C4.9825 9.7225 4.6525 10.3825 4.3125 11.0625 C-42.7125 11.5575 -42.7125 11.5575 -90.6875 12.0625 C-86.66581626 10.05165813 -84.23903633 9.61626725 -79.828125 9.16796875 C-79.14260056 9.09554962 -78.45707611 9.02313049 -77.7507782 8.94851685 C-76.26117757 8.79162932 -74.77122339 8.63807095 -73.28097534 8.48745728 C-69.25446373 8.07946302 -65.23089201 7.6441762 -61.20703125 7.2109375 C-60.36197525 7.12046646 -59.51691925 7.02999542 -58.64625549 6.93678284 C-49.51980296 5.9519154 -40.40906739 4.84532874 -31.30041504 3.70864868 C-29.51941836 3.48654213 -27.73824916 3.26581447 -25.95690918 3.04647827 C-23.45912907 2.73871587 -20.96191566 2.42673167 -18.46484375 2.11328125 C-17.3469471 1.9760112 -17.3469471 1.9760112 -16.20646667 1.83596802 C-1.62527941 -0.01972795 -1.62527941 -0.01972795 0 0 Z " fill="#8B8B8B" transform="translate(394.6875,731.9375)"/>
<path d="M0 0 C5.29623546 0.49975645 9.33032544 1.84320984 14.02734375 4.37890625 C14.66112442 4.71043198 15.29490509 5.0419577 15.94789124 5.38352966 C17.94971054 6.43349738 19.94355652 7.49766524 21.9375 8.5625 C23.30223094 9.28155527 24.66746116 9.99966377 26.03320312 10.71679688 C29.3613396 12.46697474 32.68240903 14.22991964 36 16 C35.01 16.495 35.01 16.495 34 17 C34.04125 17.94875 34.0825 18.8975 34.125 19.875 C34 23 34 23 32 25 C31.24460937 24.56171875 30.48921875 24.1234375 29.7109375 23.671875 C27.97962871 22.67444652 26.24732201 21.67855696 24.50366211 20.70288086 C20.59163583 18.51205136 16.76802014 16.23247027 12.98046875 13.83203125 C-0.4185022 5.61138289 -11.31024235 3.1218257 -27 4 C-27 3.67 -27 3.34 -27 3 C-19.74 3 -12.48 3 -5 3 C-5 2.34 -5 1.68 -5 1 C-4.01 1.33 -3.02 1.66 -2 2 C-1.67 2 -1.34 2 -1 2 C-0.67 1.34 -0.34 0.68 0 0 Z " fill="#F1F1F1" transform="translate(659,682)"/>
<path d="M0 0 C-1.32 0.33 -2.64 0.66 -4 1 C-4 1.99 -4 2.98 -4 4 C-2.68 4.33 -1.36 4.66 0 5 C-4.83389935 5.14545024 -9.66787995 5.28769214 -14.50195312 5.42724609 C-16.13869636 5.47491512 -17.77541643 5.52338807 -19.41210938 5.57275391 C-30.27910304 5.89983173 -41.12772092 6.06748311 -52 6 C-48.25123574 3.6640345 -44.31031066 3.3935251 -40.015625 2.96484375 C-38.85398834 2.83946983 -38.85398834 2.83946983 -37.66888428 2.71156311 C-35.19663136 2.44628358 -32.72342093 2.19163509 -30.25 1.9375 C-27.79116359 1.67736574 -25.33256232 1.41508391 -22.8739624 1.15272522 C-21.34701481 0.99061127 -19.8198839 0.83021097 -18.2925415 0.67185974 C-14.72798747 0.30114633 -11.17596133 -0.1060745 -7.62402344 -0.58374023 C-4.57218153 -0.93427853 -2.81841074 -1.05690403 0 0 Z " fill="#979797" transform="translate(356,738)"/>
<path d="M0 0 C0.66 0.66 1.32 1.32 2 2 C-0.75008342 3.48656039 -3.23074727 4.39860671 -6.2902832 5.02148438 C-7.12827957 5.1950647 -7.96627594 5.36864502 -8.82966614 5.54748535 C-9.72763412 5.72775269 -10.62560211 5.90802002 -11.55078125 6.09375 C-12.48294968 6.28594116 -13.4151181 6.47813232 -14.37553406 6.67614746 C-17.35346408 7.28939948 -20.33284937 7.89516821 -23.3125 8.5 C-26.28121648 9.10584083 -29.24957417 9.71332735 -32.21733093 10.32385254 C-34.06211232 10.70303547 -35.90747545 11.07940259 -37.75349426 11.45251465 C-41.52210674 12.22442422 -45.2034717 13.02992713 -48.87182617 14.19335938 C-51.85467815 14.96252686 -53.1909872 15.12360512 -56 14 C-43.55482408 10.06946932 -31.06056592 6.38155142 -18.4375 3.0625 C-17.29112061 2.75626709 -16.14474121 2.45003418 -14.96362305 2.13452148 C-13.88121338 1.85423096 -12.79880371 1.57394043 -11.68359375 1.28515625 C-10.73025146 1.03644775 -9.77690918 0.78773926 -8.79467773 0.53149414 C-5.7634574 -0.04498587 -3.07776631 -0.2281535 0 0 Z " fill="#191919" transform="translate(90,765)"/>
<path d="M0 0 C0.70189453 0.00451172 1.40378906 0.00902344 2.12695312 0.01367188 C3.85550538 0.02543073 5.58401365 0.04336546 7.3125 0.0625 C7.3125 0.3925 7.3125 0.7225 7.3125 1.0625 C6.42046875 1.19527344 5.5284375 1.32804688 4.609375 1.46484375 C3.43890625 1.64144531 2.2684375 1.81804688 1.0625 2 C-0.67773438 2.26103516 -0.67773438 2.26103516 -2.453125 2.52734375 C-3.52046875 2.70394531 -4.5878125 2.88054688 -5.6875 3.0625 C-6.46609375 3.18753906 -7.2446875 3.31257812 -8.046875 3.44140625 C-8.58828125 3.64636719 -9.1296875 3.85132813 -9.6875 4.0625 C-10.0175 5.0525 -10.3475 6.0425 -10.6875 7.0625 C-13.3275 7.0625 -15.9675 7.0625 -18.6875 7.0625 C-18.6875 8.0525 -18.6875 9.0425 -18.6875 10.0625 C-21.3275 10.0625 -23.9675 10.0625 -26.6875 10.0625 C-26.6875 7.72916667 -26.6875 5.39583333 -26.6875 3.0625 C-25.56730469 2.92972656 -24.44710938 2.79695312 -23.29296875 2.66015625 C-21.82029271 2.48193431 -20.34763753 2.30353989 -18.875 2.125 C-18.13701172 2.03798828 -17.39902344 1.95097656 -16.63867188 1.86132812 C-1.27652908 -0.01549475 -1.27652908 -0.01549475 0 0 Z " fill="#858585" transform="translate(394.6875,731.9375)"/>
<path d="M0 0 C1.65 0 3.3 0 5 0 C5.144375 1.093125 5.28875 2.18625 5.4375 3.3125 C5.88288104 6.93122987 5.88288104 6.93122987 7 10 C4.34874363 8.98628433 1.97291706 7.98298636 -0.4375 6.46875 C-5.54257075 4.36402785 -10.40238123 4.43044437 -15.875 4.3125 C-16.94492187 4.27833984 -18.01484375 4.24417969 -19.1171875 4.20898438 C-21.74468689 4.12687502 -24.37186816 4.05760376 -27 4 C-27 3.67 -27 3.34 -27 3 C-19.74 3 -12.48 3 -5 3 C-5 2.34 -5 1.68 -5 1 C-4.01 1.33 -3.02 1.66 -2 2 C-1.67 2 -1.34 2 -1 2 C-0.67 1.34 -0.34 0.68 0 0 Z " fill="#D9D9D9" transform="translate(659,682)"/>
<path d="M0 0 C-1.32 0.33 -2.64 0.66 -4 1 C-4 1.99 -4 2.98 -4 4 C-2.68 4.33 -1.36 4.66 0 5 C-2.39706123 5.10854617 -4.78915838 5.18753157 -7.1875 5.25 C-7.86103516 5.28351562 -8.53457031 5.31703125 -9.22851562 5.3515625 C-12.99375127 5.42503051 -14.83108854 5.11393243 -17.98828125 2.984375 C-18.65214844 2.32953125 -19.31601562 1.6746875 -20 1 C-17.41765641 0.63667026 -14.83460218 0.28405133 -12.25 -0.0625 C-11.52039063 -0.16626953 -10.79078125 -0.27003906 -10.0390625 -0.37695312 C-6.3892704 -0.85806208 -3.52327086 -1.04532842 0 0 Z " fill="#909090" transform="translate(356,738)"/>
<path d="M0 0 C-3.1057163 2.07047753 -5.41371898 3.1632011 -9 4 C-9 4.66 -9 5.32 -9 6 C-12.96 6.66 -16.92 7.32 -21 8 C-21 7.34 -21 6.68 -21 6 C-21.66 5.34 -22.32 4.68 -23 4 C-19.92090233 3.13003414 -16.83621369 2.28184148 -13.75 1.4375 C-12.87730469 1.19064453 -12.00460938 0.94378906 -11.10546875 0.68945312 C-9.83896484 0.34624023 -9.83896484 0.34624023 -8.546875 -0.00390625 C-7.77182617 -0.21861572 -6.99677734 -0.4333252 -6.19824219 -0.65454102 C-3.80975982 -1.0298967 -2.279036 -0.74681558 0 0 Z " fill="#1C1C1C" transform="translate(111,760)"/>
<path d="M0 0 C6.41317365 -0.1257485 6.41317365 -0.1257485 9.625 0.5625 C12.00839455 1.16645513 12.00839455 1.16645513 14.375 0.4375 C17.95793532 -0.15965589 20.59876011 0.86625337 24 2 C23.67 2.66 23.34 3.32 23 4 C20.10410348 4.02706445 17.20846205 4.04687029 14.3125 4.0625 C13.08756836 4.07506836 13.08756836 4.07506836 11.83789062 4.08789062 C7.75500916 4.10442051 3.98348293 4.03035098 0 3 C0 2.01 0 1.02 0 0 Z " fill="#818181" transform="translate(376,739)"/>
<path d="M0 0 C0 0.33 0 0.66 0 1 C-4.33194191 1.98539086 -8.66577861 2.96218859 -13 3.9375 C-14.22074219 4.21529297 -15.44148438 4.49308594 -16.69921875 4.77929688 C-22.79333922 6.14635633 -28.78229389 7.38600152 -35 8 C-31.33848513 4.33848513 -25.76425884 3.69244353 -20.875 2.3125 C-19.75867187 1.97927734 -18.64234375 1.64605469 -17.4921875 1.30273438 C-11.19324491 -0.48369923 -6.42872692 -1.42249336 0 0 Z " fill="#464646" transform="translate(69,772)"/>
<path d="M0 0 C0.33 1.65 0.66 3.3 1 5 C-4.38027025 6.19088986 -9.45291384 7.2919519 -15 7 C-12.70041309 3.55061964 -12.70687608 3.80148672 -9 3 C-7.80375 2.484375 -6.6075 1.96875 -5.375 1.4375 C-2 0 -2 0 0 0 Z " fill="#080808" transform="translate(116,758)"/>
<path d="M0 0 C3.3 0 6.6 0 10 0 C9.67 2.31 9.34 4.62 9 7 C8.01 7.33 7.02 7.66 6 8 C1.125 3.375 1.125 3.375 0 0 Z " fill="#070707" transform="translate(886,676)"/>
<path d="M0 0 C0 0.66 0 1.32 0 2 C1.32 2.33 2.64 2.66 4 3 C4 3.33 4 3.66 4 4 C-1.61 4 -7.22 4 -13 4 C-11.68 3.34 -10.36 2.68 -9 2 C-9 1.34 -9 0.68 -9 0 C-3.375 -1.125 -3.375 -1.125 0 0 Z " fill="#828282" transform="translate(416,740)"/>
<path d="M0 0 C0.99 0.99 1.98 1.98 3 3 C2.85515395 5.89692106 2.38032945 7.49865663 0.625 9.8125 C-1 11 -1 11 -4 11 C-4.66 10.67 -5.32 10.34 -6 10 C-4.02 6.7 -2.04 3.4 0 0 Z " fill="#E9E9E9" transform="translate(444,525)"/>
<path d="M0 0 C9.24 0 18.48 0 28 0 C28 0.33 28 0.66 28 1 C25.36 1 22.72 1 20 1 C20 1.66 20 2.32 20 3 C17.36 3 14.72 3 12 3 C12 2.34 12 1.68 12 1 C8.04 1 4.08 1 0 1 C0 0.67 0 0.34 0 0 Z " fill="#0A0A0A" transform="translate(676,716)"/>
<path d="M0 0 C2.74277578 3.19990508 4.6302836 6.00499382 6 10 C2.71303767 10.79953138 1.28976808 11.09658936 -2 10 C-1.835 9.071875 -1.67 8.14375 -1.5 7.1875 C-0.92251612 4.04378647 -0.92251612 4.04378647 -1 1 C-0.67 0.67 -0.34 0.34 0 0 Z " fill="#141414" transform="translate(715,413)"/>
<path d="M0 0 C0 0.33 0 0.66 0 1 C-2.97 1 -5.94 1 -9 1 C-9 1.66 -9 2.32 -9 3 C-10.9914056 3.38133299 -12.99279077 3.71325582 -15 4 C-15.33 3.67 -15.66 3.34 -16 3 C-18.01594582 2.76572222 -20.038474 2.58663876 -22.0625 2.4375 C-23.16722656 2.35371094 -24.27195312 2.26992188 -25.41015625 2.18359375 C-26.26480469 2.12300781 -27.11945312 2.06242188 -28 2 C-28 1.67 -28 1.34 -28 1 C-18.65190221 0.33566818 -9.37877608 -0.1598655 0 0 Z " fill="#484848" transform="translate(548,720)"/>
<path d="M0 0 C0 0.33 0 0.66 0 1 C-13.6332574 1.18451025 -13.6332574 1.18451025 -20 0 C-20 -0.33 -20 -0.66 -20 -1 C-13.57983555 -2.71204385 -5.98373349 -3.19132453 0 0 Z " fill="#292929" transform="translate(581,751)"/>
<path d="M0 0 C0 0.33 0 0.66 0 1 C-0.67546875 1.04898438 -1.3509375 1.09796875 -2.046875 1.1484375 C-2.93890625 1.22320313 -3.8309375 1.29796875 -4.75 1.375 C-5.63171875 1.44460938 -6.5134375 1.51421875 -7.421875 1.5859375 C-10.01343369 2.00215753 -11.71283723 2.75950494 -14 4 C-15.65740715 4.37668344 -17.32345271 4.72057545 -19 5 C-19 4.34 -19 3.68 -19 3 C-19.66 3 -20.32 3 -21 3 C-21 2.34 -21 1.68 -21 1 C-13.97195301 0.14626761 -7.07721931 -0.12109311 0 0 Z " fill="#505050" transform="translate(515,722)"/>
<path d="M0 0 C0.66 0.99 1.32 1.98 2 3 C0.17164045 7.20522697 -0.84775092 9.12479074 -5 11 C-6.26804566 13.0335948 -6.26804566 13.0335948 -7 15 C-7.33 14.34 -7.66 13.68 -8 13 C-6.75506252 10.71025684 -5.47358472 8.55809966 -4.0625 6.375 C-3.67642578 5.76398438 -3.29035156 5.15296875 -2.89257812 4.5234375 C-1.93553674 3.0110758 -0.96867189 1.50493883 0 0 Z " fill="#181818" transform="translate(430,462)"/>
<path d="M0 0 C0.66 0.33 1.32 0.66 2 1 C1.690625 1.763125 1.38125 2.52625 1.0625 3.3125 C0.32106407 5.18789677 -0.36228217 7.08684652 -1 9 C-2.32 9 -3.64 9 -5 9 C-5.33 9.66 -5.66 10.32 -6 11 C-6.33 10.34 -6.66 9.68 -7 9 C-6.07421875 7.08984375 -6.07421875 7.08984375 -4.6875 4.9375 C-4.23761719 4.22464844 -3.78773438 3.51179688 -3.32421875 2.77734375 C-2 1 -2 1 0 0 Z " fill="#121212" transform="translate(382,436)"/>
<path d="M0 0 C0.66 0.99 1.32 1.98 2 3 C0.68 5.31 -0.64 7.62 -2 10 C-3.32 9.01 -4.64 8.02 -6 7 C-5.8125 5.1875 -5.8125 5.1875 -5 3 C-2.4375 1.25 -2.4375 1.25 0 0 Z " fill="#F8F8F8" transform="translate(408,279)"/>
<path d="M0 0 C0.66 0 1.32 0 2 0 C2 0.66 2 1.32 2 2 C2.99 2 3.98 2 5 2 C5 1.34 5 0.68 5 0 C6.32 0.33 7.64 0.66 9 1 C8.67 2.32 8.34 3.64 8 5 C2.58461538 6.23076923 2.58461538 6.23076923 -0.375 5.0625 C-0.91125 4.711875 -1.4475 4.36125 -2 4 C-1.34 2.68 -0.68 1.36 0 0 Z " fill="#202020" transform="translate(938,729)"/>
<path d="M0 0 C1.125 1.75 1.125 1.75 2 4 C1.125 6.25 1.125 6.25 0 8 C-0.66 8 -1.32 8 -2 8 C-2.33 8.66 -2.66 9.32 -3 10 C-3.99 9.67 -4.98 9.34 -6 9 C-5.38245741 7.68397477 -4.75571258 6.37226444 -4.125 5.0625 C-3.77695312 4.33160156 -3.42890625 3.60070312 -3.0703125 2.84765625 C-2 1 -2 1 0 0 Z " fill="#101010" transform="translate(278,507)"/>
<path d="M0 0 C1.45212891 0.01160156 1.45212891 0.01160156 2.93359375 0.0234375 C3.90425781 0.01570312 4.87492187 0.00796875 5.875 0 C6.69871094 0.13148438 7.52242188 0.26296875 8.37109375 0.3984375 C9.03109375 1.3884375 9.69109375 2.3784375 10.37109375 3.3984375 C5.09109375 3.3984375 -0.18890625 3.3984375 -5.62890625 3.3984375 C-2.62890625 0.3984375 -2.62890625 0.3984375 0 0 Z " fill="#4B4B4B" transform="translate(496.62890625,744.6015625)"/>
<path d="M0 0 C0.66 0 1.32 0 2 0 C2.33 1.98 2.66 3.96 3 6 C2.071875 6.28875 1.14375 6.5775 0.1875 6.875 C-3.09791667 7.8875 -3.09791667 7.8875 -6 10 C-4.63312778 6.01328937 -2.84804907 3.11505367 0 0 Z " fill="#191919" transform="translate(380,545)"/>
<path d="M0 0 C0.99 0.33 1.98 0.66 3 1 C3.33 1.99 3.66 2.98 4 4 C-1.75 9 -1.75 9 -4 9 C-2.94124926 5.59687262 -1.99097846 2.98646769 0 0 Z " fill="#ECECEC" transform="translate(292,540)"/>
<path d="M0 0 C1 4 1 4 1 7 C0.34 7 -0.32 7 -1 7 C-1 7.66 -1 8.32 -1 9 C-1.99 9.495 -1.99 9.495 -3 10 C-3.33 10.99 -3.66 11.98 -4 13 C-4.99 12.67 -5.98 12.34 -7 12 C-4.69 8.04 -2.38 4.08 0 0 Z " fill="#DEDEDE" transform="translate(398,602)"/>
<path d="M0 0 C1.98 0.495 1.98 0.495 4 1 C4.33 2.32 4.66 3.64 5 5 C4.34 5 3.68 5 3 5 C3 5.66 3 6.32 3 7 C3.66 7 4.32 7 5 7 C4.67 7.99 4.34 8.98 4 10 C1.28312788 7.65361044 0.05484124 5.42823404 -1 2 C-0.67 1.34 -0.34 0.68 0 0 Z " fill="#0F0F0F" transform="translate(705,592)"/>
<path d="M0 0 C0.99 0.66 1.98 1.32 3 2 C1.35 4.64 -0.3 7.28 -2 10 C-4.08954032 5.82091936 -4.16552619 5.19589427 -3 1 C-2.01 1.33 -1.02 1.66 0 2 C0 1.34 0 0.68 0 0 Z " fill="#ECECEC" transform="translate(349,483)"/>
<path d="M0 0 C0.144375 0.598125 0.28875 1.19625 0.4375 1.8125 C0.8872439 3.56150404 1.42892341 5.28677023 2 7 C1.195625 7.45375 0.39125 7.9075 -0.4375 8.375 C-3.08856572 9.74725665 -3.08856572 9.74725665 -4 12 C-4.66 12 -5.32 12 -6 12 C-4.68139111 7.38486888 -2.78644563 3.90102388 0 0 Z M-1 4 C0 6 0 6 0 6 Z " fill="#1C1C1C" transform="translate(363,360)"/>
<path d="M0 0 C0.33 0.66 0.66 1.32 1 2 C-4.61 2 -10.22 2 -16 2 C-11.80150574 -2.19849426 -5.41888091 -1.1921538 0 0 Z " fill="#767676" transform="translate(399,740)"/>
<path d="M0 0 C1.0528418 0.01353516 1.0528418 0.01353516 2.12695312 0.02734375 C3.85561525 0.05086296 5.58410145 0.08673287 7.3125 0.125 C7.3125 0.455 7.3125 0.785 7.3125 1.125 C5.25189936 1.49005516 3.18890368 1.84160715 1.125 2.1875 C-0.59783203 2.48333984 -0.59783203 2.48333984 -2.35546875 2.78515625 C-5.47398366 3.10322284 -7.68555783 2.93343264 -10.6875 2.125 C-7.00662647 -0.32891569 -4.24394412 -0.10302759 0 0 Z " fill="#B1B1B1" transform="translate(394.6875,731.875)"/>
<path d="M0 0 C3.34726719 1.11575573 3.62079748 1.51344622 5.25 4.4375 C5.8275 5.613125 6.405 6.78875 7 8 C6.67 8.66 6.34 9.32 6 10 C5.34 9.67 4.68 9.34 4 9 C4 8.34 4 7.68 4 7 C1.525 6.01 1.525 6.01 -1 5 C-0.67 3.35 -0.34 1.7 0 0 Z " fill="#E8E8E8" transform="translate(594,521)"/>
<path d="M0 0 C0.66 0.33 1.32 0.66 2 1 C0.35 4.3 -1.3 7.6 -3 11 C-3.99 10.34 -4.98 9.68 -6 9 C-4.68775452 5.06326356 -3.08089673 2.77280706 0 0 Z " fill="#121212" transform="translate(479,461)"/>
<path d="M0 0 C1.85776765 3.13498292 2.20140476 5.37471432 2 9 C-1.75376152 7.74874616 -2.24073289 6.4347596 -4 3 C-4 2.34 -4 1.68 -4 1 C-2.68 0.67 -1.36 0.34 0 0 Z " fill="#101010" transform="translate(653,396)"/>
<path d="M0 0 C0.66 0.66 1.32 1.32 2 2 C1.505 2.763125 1.01 3.52625 0.5 4.3125 C-1.24368308 6.92363751 -1.24368308 6.92363751 -1 10 C-1.66 10 -2.32 10 -3 10 C-3.33 10.66 -3.66 11.32 -4 12 C-4.99 12.33 -5.98 12.66 -7 13 C-5.35821735 8.22390502 -2.73453298 4.20617096 0 0 Z " fill="#1A1A1A" transform="translate(367,565)"/>
<path d="M0 0 C1.24675325 4.98701299 1.24675325 4.98701299 0 8 C-0.99 8.33 -1.98 8.66 -3 9 C-4.20882096 11.00016466 -4.20882096 11.00016466 -5 13 C-5.66 12.67 -6.32 12.34 -7 12 C-4.69 8.04 -2.38 4.08 0 0 Z " fill="#DDDDDD" transform="translate(372,645)"/>
<path d="M0 0 C2.0625 0.4375 2.0625 0.4375 4 1 C4 2.65 4 4.3 4 6 C1.66666667 6 -0.66666667 6 -3 6 C-1.125 1.125 -1.125 1.125 0 0 Z " fill="#131313" transform="translate(355,585)"/>
<path d="M0 0 C0.33 0.66 0.66 1.32 1 2 C1.66 2.33 2.32 2.66 3 3 C2.34 3.66 1.68 4.32 1 5 C1 5.66 1 6.32 1 7 C0.01 7 -0.98 7 -2 7 C-1.67 7.99 -1.34 8.98 -1 10 C-1.66 10.66 -2.32 11.32 -3 12 C-3.66 11.67 -4.32 11.34 -5 11 C-3.55049545 7.2089881 -1.84827434 3.6125362 0 0 Z " fill="#E6E6E6" transform="translate(305,518)"/>
<path d="M0 0 C0.66 0.66 1.32 1.32 2 2 C0.99088542 3.72526042 -0.01822917 5.45052083 -1.02734375 7.17578125 C-2.13901247 9.13819555 -2.13901247 9.13819555 -3 12 C-3.66 12 -4.32 12 -5 12 C-5 12.66 -5 13.32 -5 14 C-5.66 14 -6.32 14 -7 14 C-5.23570801 9.02790438 -2.6060834 4.56561939 0 0 Z " fill="#1A1A1A" transform="translate(297,472)"/>
<path d="M0 0 C1 4 1 4 -0.1875 7.1875 C-2 10 -2 10 -6 11 C-4.02 7.37 -2.04 3.74 0 0 Z " fill="#E1E1E1" transform="translate(340,460)"/>
<path d="M0 0 C1.32 0.33 2.64 0.66 4 1 C2.48328036 5.55015893 -1.16891053 7.50057264 -5 10 C-3.66511872 6.40608886 -2.03977277 3.24509304 0 0 Z " fill="#222222" transform="translate(370,453)"/>
<path d="M0 0 C0.66 0.33 1.32 0.66 2 1 C1.875 3.8125 1.875 3.8125 1 7 C-2.0625 8.875 -2.0625 8.875 -5 10 C-3.66511872 6.40608886 -2.03977277 3.24509304 0 0 Z " fill="#1F1F1F" transform="translate(331,414)"/>
<path d="M0 0 C0.66 0 1.32 0 2 0 C2.33 3.63 2.66 7.26 3 11 C-1.76058041 5.47158404 -1.76058041 5.47158404 -2 2 C-1.34 1.34 -0.68 0.68 0 0 Z " fill="#121212" transform="translate(570,361)"/>
<path d="M0 0 C0.66 0.66 1.32 1.32 2 2 C0.68 4.31 -0.64 6.62 -2 9 C-2.66 8.67 -3.32 8.34 -4 8 C-4 6.02 -4 4.04 -4 2 C-2.68 1.34 -1.36 0.68 0 0 Z " fill="#F0F0F0" transform="translate(158,706)"/>
<path d="M0 0 C2.74277578 3.19990508 4.6302836 6.00499382 6 10 C3.625 9.4375 3.625 9.4375 1 8 C-0.3125 4.375 -0.3125 4.375 -1 1 C-0.67 0.67 -0.34 0.34 0 0 Z " fill="#1E1E1E" transform="translate(882,696)"/>
<path d="M0 0 C4.01715686 4.38235294 4.01715686 4.38235294 3.9375 7.25 C3 9 3 9 0 10 C-1.125 6.25 -1.125 6.25 0 4 C0 2.68 0 1.36 0 0 Z " fill="#121212" transform="translate(658,458)"/>
<path d="M0 0 C0.66 0.66 1.32 1.32 2 2 C0.75 5.4375 0.75 5.4375 -1 9 C-2.32 9.33 -3.64 9.66 -5 10 C-3.35 6.7 -1.7 3.4 0 0 Z " fill="#1E1E1E" transform="translate(447,217)"/>
<path d="M0 0 C2 0 4 0 6 0 C6.33 0.99 6.66 1.98 7 3 C3.535 4.485 3.535 4.485 0 6 C-1.125 2.25 -1.125 2.25 0 0 Z " fill="#0A0A0A" transform="translate(681,609)"/>
<path d="M0 0 C5.75 0.75 5.75 0.75 8 3 C6.68 3.33 5.36 3.66 4 4 C4 3.34 4 2.68 4 2 C3.34 2 2.68 2 2 2 C2 2.99 2 3.98 2 5 C1.01 4.67 0.02 4.34 -1 4 C-1.33 3.34 -1.66 2.68 -2 2 C-1.34 2 -0.68 2 0 2 C0 1.34 0 0.68 0 0 Z " fill="#EEEEEE" transform="translate(467,578)"/>
<path d="M0 0 C1.4606285 2.64738916 2 3.89448334 2 7 C0.02 7.66 -1.96 8.32 -4 9 C-2.80100302 5.9168649 -1.52299523 2.93720508 0 0 Z " fill="#191919" transform="translate(411,384)"/>
<path d="M0 0 C0.99 0.33 1.98 0.66 3 1 C2.34 1 1.68 1 1 1 C0.87625 1.94875 0.7525 2.8975 0.625 3.875 C0 7 0 7 -2 9 C-2.99 9.33 -3.98 9.66 -5 10 C-3.66511872 6.40608886 -2.03977277 3.24509304 0 0 Z " fill="#1E1E1E" transform="translate(461,194)"/>
<path d="M0 0 C1.32 0 2.64 0 4 0 C4.66 1.32 5.32 2.64 6 4 C5.01 4.99 4.02 5.98 3 7 C0 3.375 0 3.375 0 0 Z " fill="#ECECEC" transform="translate(641,532)"/>
<path d="M0 0 C0.66 0.33 1.32 0.66 2 1 C0.375 6.75 0.375 6.75 -3 9 C-3 4.72290301 -2.29379749 3.44069624 0 0 Z " fill="#181818" transform="translate(396,518)"/>
<path d="M0 0 C1.32 0.66 2.64 1.32 4 2 C3.625 4.4375 3.625 4.4375 3 7 C2.01 7.495 2.01 7.495 1 8 C-1 5 -1 5 -0.625 2.3125 C-0.41875 1.549375 -0.2125 0.78625 0 0 Z " fill="#F0F0F0" transform="translate(667,467)"/>
<path d="M0 0 C2.25245881 2.68841859 3.88213958 4.64641875 5 8 C4.34 8.66 3.68 9.32 3 10 C3 9.34 3 8.68 3 8 C2.01 8.33 1.02 8.66 0 9 C0 6 0 3 0 0 Z " fill="#161616" transform="translate(739,454)"/>
<path d="M0 0 C1.98 0.66 3.96 1.32 6 2 C4.625 4.5 4.625 4.5 3 7 C2.34 7 1.68 7 1 7 C0.67 4.69 0.34 2.38 0 0 Z " fill="#0A0A0A" transform="translate(545,320)"/>
<path d="M0 0 C-0.639375 0.28875 -1.27875 0.5775 -1.9375 0.875 C-4.15206079 1.82823451 -4.15206079 1.82823451 -5 4 C-8.3 3.34 -11.6 2.68 -15 2 C-15 1.67 -15 1.34 -15 1 C-9.91913204 0.15318867 -5.15171623 -0.09038099 0 0 Z " fill="#434343" transform="translate(540,691)"/>
<path d="M0 0 C0.66 0 1.32 0 2 0 C2.33 1.98 2.66 3.96 3 6 C1.02 6.33 -0.96 6.66 -3 7 C-1.125 1.125 -1.125 1.125 0 0 Z " fill="#151515" transform="translate(226,594)"/>
<path d="M0 0 C3.465 1.485 3.465 1.485 7 3 C6.01 3.99 5.02 4.98 4 6 C2.68 5.34 1.36 4.68 0 4 C0 2.68 0 1.36 0 0 Z " fill="#EAEAEA" transform="translate(483,585)"/>
<path d="M0 0 C0.66 0.33 1.32 0.66 2 1 C1.8125 3.375 1.8125 3.375 1 6 C-1.5625 7.3125 -1.5625 7.3125 -4 8 C-2.87548273 5.0280615 -1.77706209 2.66559313 0 0 Z " fill="#1D1D1D" transform="translate(251,551)"/>
<path d="M0 0 C0 3 0 3 -1 6 C-4.0625 7.6875 -4.0625 7.6875 -7 9 C-6.82374165 6.62051228 -6.30280227 5.29774151 -4.59765625 3.62109375 C-3.09350908 2.37884514 -1.54870149 1.18623944 0 0 Z " fill="#101010" transform="translate(370,458)"/>
<path d="M0 0 C0.33 0 0.66 0 1 0 C1 2.31 1 4.62 1 7 C0.34 7 -0.32 7 -1 7 C-1.66 8.32 -2.32 9.64 -3 11 C-3.66 10.34 -4.32 9.68 -5 9 C-3.35 6.03 -1.7 3.06 0 0 Z " fill="#1B1B1B" transform="translate(310,450)"/>
<path d="M0 0 C0.33 0.99 0.66 1.98 1 3 C0.34 3.66 -0.32 4.32 -1 5 C-1 6.32 -1 7.64 -1 9 C-3.62386487 5.93882432 -4 5.26826873 -4 1 C-2 0 -2 0 0 0 Z " fill="#101010" transform="translate(623,447)"/>
<path d="M0 0 C0.66 0 1.32 0 2 0 C1.38461538 5.53846154 1.38461538 5.53846154 -0.5625 7.875 C-1.036875 8.24625 -1.51125 8.6175 -2 9 C-3 6 -3 6 -1.5625 2.8125 C-1.046875 1.884375 -0.53125 0.95625 0 0 Z " fill="#0D0D0D" transform="translate(356,427)"/>
<path d="M0 0 C0.33 0 0.66 0 1 0 C1 1.98 1 3.96 1 6 C1.66 6.33 2.32 6.66 3 7 C2.25 8.9375 2.25 8.9375 1 11 C-1.125 11.75 -1.125 11.75 -3 12 C-2.690625 11.319375 -2.38125 10.63875 -2.0625 9.9375 C-0.86629351 6.63034088 -0.40994603 3.48454122 0 0 Z " fill="#272727" transform="translate(421,362)"/>
<path d="M0 0 C0.99 0.33 1.98 0.66 3 1 C2.67 1.99 2.34 2.98 2 4 C1.34 4 0.68 4 0 4 C0 4.99 0 5.98 0 7 C-1.5 8.6875 -1.5 8.6875 -3 10 C-3.66 9.67 -4.32 9.34 -5 9 C-3.35 6.03 -1.7 3.06 0 0 Z " fill="#252525" transform="translate(386,320)"/>
<path d="M0 0 C4.455 0.99 4.455 0.99 9 2 C5.5647952 4.29013653 4.014669 4.17842973 0 4 C0 2.68 0 1.36 0 0 Z " fill="#212121" transform="translate(945,683)"/>
<path d="M0 0 C0.66 0.33 1.32 0.66 2 1 C0.68 3.64 -0.64 6.28 -2 9 C-2.33 9 -2.66 9 -3 9 C-3.625 6.125 -3.625 6.125 -4 3 C-2 1 -2 1 0 0 Z " fill="#151515" transform="translate(342,560)"/>
<path d="M0 0 C0.66 0.99 1.32 1.98 2 3 C0.02 5.97 0.02 5.97 -2 9 C-2.66 8.67 -3.32 8.34 -4 8 C-2.87548273 5.0280615 -1.77706209 2.66559313 0 0 Z " fill="#E8E8E8" transform="translate(355,542)"/>
<path d="M0 0 C1.32 1.65 2.64 3.3 4 5 C3.01 6.485 3.01 6.485 2 8 C2 7.34 2 6.68 2 6 C1.01 6.33 0.02 6.66 -1 7 C-1.625 5.1875 -1.625 5.1875 -2 3 C-1.34 2.01 -0.68 1.02 0 0 Z " fill="#131313" transform="translate(627,511)"/>
<path d="M0 0 C0.66 0.33 1.32 0.66 2 1 C2 2.98 2 4.96 2 7 C1.01 6.67 0.02 6.34 -1 6 C-1.99 6.66 -2.98 7.32 -4 8 C-2.87548273 5.0280615 -1.77706209 2.66559313 0 0 Z " fill="#1E1E1E" transform="translate(445,437)"/>
<path d="M0 0 C0.66 0.99 1.32 1.98 2 3 C1.67 3.99 1.34 4.98 1 6 C-0.65 6.33 -2.3 6.66 -4 7 C-3.34 5.35 -2.68 3.7 -2 2 C-1.34 2 -0.68 2 0 2 C0 1.34 0 0.68 0 0 Z " fill="#EEEEEE" transform="translate(516,397)"/>
<path d="M0 0 C0.99 0.99 1.98 1.98 3 3 C1.68 4.32 0.36 5.64 -1 7 C-1.99 6.67 -2.98 6.34 -4 6 C-2.68 4.02 -1.36 2.04 0 0 Z " fill="#1D1D1D" transform="translate(411,279)"/>
<path d="M0 0 C0.66 0.33 1.32 0.66 2 1 C0.68 3.31 -0.64 5.62 -2 8 C-2.99 7.67 -3.98 7.34 -5 7 C-3.75023244 3.34683329 -3.32901247 2.21934164 0 0 Z " fill="#E5E5E5" transform="translate(414,271)"/>
<path d="M0 0 C-0.33 0.66 -0.66 1.32 -1 2 C-3.31 2 -5.62 2 -8 2 C-8 1.01 -8 0.02 -8 -1 C-4.37673261 -2.2077558 -3.35853631 -1.54311128 0 0 Z " fill="#828282" transform="translate(360,740)"/>
<path d="M0 0 C0.66 1.32 1.32 2.64 2 4 C0.68 5.65 -0.64 7.3 -2 9 C-2.66 6.36 -3.32 3.72 -4 1 C-2.68 1.33 -1.36 1.66 0 2 C0 1.34 0 0.68 0 0 Z " fill="#EEEEEE" transform="translate(990,701)"/>
<path d="M0 0 C2.79651501 1.46817038 3.43411431 2.40553901 4.5 5.3125 C1.04074837 4.0633258 -1.64693203 2.63722205 -4.5 0.3125 C-2.5 -0.6875 -2.5 -0.6875 0 0 Z " fill="#171717" transform="translate(475.5,577.6875)"/>
<path d="M0 0 C1.98 0.495 1.98 0.495 4 1 C2.515 4.465 2.515 4.465 1 8 C-1 5 -1 5 -0.625 2.3125 C-0.41875 1.549375 -0.2125 0.78625 0 0 Z " fill="#121212" transform="translate(275,562)"/>
<path d="M0 0 C0.66 1.32 1.32 2.64 2 4 C-0.31 5.98 -2.62 7.96 -5 10 C-3.66511872 6.40608886 -2.03977277 3.24509304 0 0 Z " fill="#1D1D1D" transform="translate(388,531)"/>
<path d="M0 0 C1.09658936 3.28976808 0.79953138 4.71303767 0 8 C-1.32 8 -2.64 8 -4 8 C-2.68 5.36 -1.36 2.72 0 0 Z " fill="#1D1D1D" transform="translate(318,436)"/>
<path d="M0 0 C0.33 0 0.66 0 1 0 C1.40322225 3.52819467 1.18545105 4.74276145 -0.9375 7.6875 C-1.618125 8.450625 -2.29875 9.21375 -3 10 C-3.33 10.66 -3.66 11.32 -4 12 C-4.66 11.67 -5.32 11.34 -6 11 C-4.02 7.37 -2.04 3.74 0 0 Z " fill="#DBDBDB" transform="translate(354,436)"/>
<path d="M0 0 C-0.33 0.66 -0.66 1.32 -1 2 C-0.34 2.33 0.32 2.66 1 3 C-1.64 3 -4.28 3 -7 3 C-7 2.01 -7 1.02 -7 0 C-3.98968256 -0.93423645 -3.13349732 -1.04449911 0 0 Z " fill="#030303" transform="translate(857,746)"/>
<path d="M0 0 C0.33 0.66 0.66 1.32 1 2 C1.66 2.33 2.32 2.66 3 3 C3 3.99 3 4.98 3 6 C1.02 6.99 1.02 6.99 -1 8 C-1.33 6.68 -1.66 5.36 -2 4 C-1.34 4 -0.68 4 0 4 C0 2.68 0 1.36 0 0 Z " fill="#0A0A0A" transform="translate(901,693)"/>
<path d="M0 0 C2.31 0 4.62 0 7 0 C7 0.99 7 1.98 7 3 C3.71023192 4.09658936 2.28696233 3.79953138 -1 3 C-0.67 2.01 -0.34 1.02 0 0 Z " fill="#090909" transform="translate(929,681)"/>
<path d="M0 0 C0.99 0.66 1.98 1.32 3 2 C2.67 2.33 2.34 2.66 2 3 C2.66 3.66 3.32 4.32 4 5 C3.34 5 2.68 5 2 5 C1.67 5.99 1.34 6.98 1 8 C-1 6 -1 6 -2 4 C-1.0625 1.875 -1.0625 1.875 0 0 Z " fill="#181818" transform="translate(218,607)"/>
<path d="M0 0 C0.99 0.33 1.98 0.66 3 1 C2.34 2.98 1.68 4.96 1 7 C-0.32 6.67 -1.64 6.34 -3 6 C-1.125 1.125 -1.125 1.125 0 0 Z " fill="#1D1D1D" transform="translate(371,559)"/>
<path d="M0 0 C0.66 1.32 1.32 2.64 2 4 C1.01 4.33 0.02 4.66 -1 5 C-1 5.99 -1 6.98 -1 8 C-1.99 7.67 -2.98 7.34 -4 7 C-2.68 4.69 -1.36 2.38 0 0 Z " fill="#1F1F1F" transform="translate(307,559)"/>
<path d="M0 0 C3 3.625 3 3.625 3 7 C2.01 7.33 1.02 7.66 0 8 C-1.125 6.25 -1.125 6.25 -2 4 C-1.125 1.75 -1.125 1.75 0 0 Z " fill="#141414" transform="translate(260,535)"/>
<path d="M0 0 C0.598125 0.33 1.19625 0.66 1.8125 1 C4.05386471 2.20787988 4.05386471 2.20787988 7 2 C6.34 3.65 5.68 5.3 5 7 C2.65941363 4.87219421 1.29299694 2.88437779 0 0 Z " fill="#E9E9E9" transform="translate(694,519)"/>
<path d="M0 0 C0.33 0.99 0.66 1.98 1 3 C1.66 3 2.32 3 3 3 C3.66 4.98 4.32 6.96 5 9 C4.01 9.495 4.01 9.495 3 10 C0.59185923 6.48812804 -0.36629408 4.27343092 0 0 Z " fill="#ECECEC" transform="translate(689,506)"/>
<path d="M0 0 C1.32 1.65 2.64 3.3 4 5 C3.34 5.66 2.68 6.32 2 7 C1.01 7 0.02 7 -1 7 C-1.625 5.1875 -1.625 5.1875 -2 3 C-1.34 2.01 -0.68 1.02 0 0 Z " fill="#E9E9E9" transform="translate(547,439)"/>
<path d="M0 0 C0.66 0.33 1.32 0.66 2 1 C1.1654738 3.50357861 0.20628008 5.66785852 -1 8 C-1.99 7.67 -2.98 7.34 -4 7 C-2.68 4.69 -1.36 2.38 0 0 Z " fill="#1D1D1D" transform="translate(426,253)"/>
<path d="M0 0 C3.3 0 6.6 0 10 0 C9.01 0.33 8.02 0.66 7 1 C7 1.66 7 2.32 7 3 C2.25 2.25 2.25 2.25 0 0 Z " fill="#8B8B8B" transform="translate(403,731)"/>
<path d="M0 0 C0.99 0.33 1.98 0.66 3 1 C2.67 1.66 2.34 2.32 2 3 C2.66 3 3.32 3 4 3 C4.33 2.34 4.66 1.68 5 1 C5.66 1.99 6.32 2.98 7 4 C4.39417629 4.93065133 3.35801776 5.14917407 0.75 4.0625 C0.1725 3.711875 -0.405 3.36125 -1 3 C-0.67 2.01 -0.34 1.02 0 0 Z " fill="#1D1D1D" transform="translate(964,721)"/>
<path d="M0 0 C1.25541557 3.76624671 0.37061958 5.37188934 -1 9 C-1.99 9 -2.98 9 -4 9 C-2.94124926 5.59687262 -1.99097846 2.98646769 0 0 Z " fill="#1A1A1A" transform="translate(165,698)"/>
<path d="M0 0 C0.66 1.32 1.32 2.64 2 4 C-0.97 6.475 -0.97 6.475 -4 9 C-2.94124926 5.59687262 -1.99097846 2.98646769 0 0 Z " fill="#262626" transform="translate(299,572)"/>
<path d="M0 0 C1.32 0 2.64 0 4 0 C2.92598892 2.91517292 2.22189824 4.77810176 0 7 C-1.125 2.25 -1.125 2.25 0 0 Z " fill="#131313" transform="translate(300,520)"/>
<path d="M0 0 C0.625 1.8125 0.625 1.8125 1 4 C-1.0072908 7.0109362 -1.83884224 7.63016497 -5 9 C-3.50163895 5.88801935 -1.80066242 2.9465385 0 0 Z " fill="#212121" transform="translate(333,516)"/>
<path d="M0 0 C1.65 1.65 3.3 3.3 5 5 C4.67 5.66 4.34 6.32 4 7 C3.01 6.67 2.02 6.34 1 6 C-0.1875 3.4375 -0.1875 3.4375 -1 1 C-0.67 0.67 -0.34 0.34 0 0 Z " fill="#101010" transform="translate(560,457)"/>
<path d="M0 0 C0.33 0.99 0.66 1.98 1 3 C-0.9375 5.6875 -0.9375 5.6875 -3 8 C-3.75 6.25 -3.75 6.25 -4 4 C-2.0625 1.75 -2.0625 1.75 0 0 Z " fill="#EBEBEB" transform="translate(317,435)"/>
<path d="M0 0 C2.4375 0.8125 2.4375 0.8125 5 2 C5.33 2.99 5.66 3.98 6 5 C2.73045798 4.43628586 1.17424117 3.50037734 -1 1 C-0.67 0.67 -0.34 0.34 0 0 Z " fill="#111111" transform="translate(638,379)"/>
<path d="M0 0 C1.32 0 2.64 0 4 0 C2.9024777 2.99324263 2.32317108 3.84610901 -0.625 5.25 C-1.40875 5.4975 -2.1925 5.745 -3 6 C-2.01 4.02 -1.02 2.04 0 0 Z " fill="#1C1C1C" transform="translate(351,380)"/>
<path d="M0 0 C-0.99 1.485 -0.99 1.485 -2 3 C-5.625 3.1875 -5.625 3.1875 -9 3 C-5.92807025 0.26939578 -4.09590633 -0.34132553 0 0 Z " fill="#131313" transform="translate(73,769)"/>
<path d="M0 0 C0.99 0 1.98 0 3 0 C2.67 0.99 2.34 1.98 2 3 C-1.63 3 -5.26 3 -9 3 C-9 2.67 -9 2.34 -9 2 C-6.94921875 1.77213542 -4.8984375 1.54427083 -2.84765625 1.31640625 C-0.98859771 1.18113386 -0.98859771 1.18113386 0 0 Z " fill="#4F4F4F" transform="translate(521,746)"/>
<path d="M0 0 C0.33 0.66 0.66 1.32 1 2 C0.67 2.99 0.34 3.98 0 5 C-0.66 4.67 -1.32 4.34 -2 4 C-2.33 4.33 -2.66 4.66 -3 5 C-3.99 4.67 -4.98 4.34 -6 4 C-5.67 3.01 -5.34 2.02 -5 1 C-3.35 0.67 -1.7 0.34 0 0 Z " fill="#090909" transform="translate(982,713)"/>
<path d="M0 0 C2.475 0.99 2.475 0.99 5 2 C5 2.66 5 3.32 5 4 C3.68 4 2.36 4 1 4 C0.67 4.66 0.34 5.32 0 6 C-0.38218767 4.34385343 -0.71395102 2.67542976 -1 1 C-0.67 0.67 -0.34 0.34 0 0 Z " fill="#F8F8F8" transform="translate(664,683)"/>
<path d="M0 0 C1.125 1.75 1.125 1.75 2 4 C1.125 6.25 1.125 6.25 0 8 C-0.99 6.02 -1.98 4.04 -3 2 C-2.01 1.34 -1.02 0.68 0 0 Z " fill="#E8E8E8" transform="translate(870,668)"/>
<path d="M0 0 C0.66 0 1.32 0 2 0 C0.92598892 2.91517292 0.22189824 4.77810176 -2 7 C-2.66 6.67 -3.32 6.34 -4 6 C-2.84826645 3.53199953 -1.95216435 1.95216435 0 0 Z " fill="#151515" transform="translate(296,530)"/>
<path d="M0 0 C0.66 0.33 1.32 0.66 2 1 C1.34 2.98 0.68 4.96 0 7 C-0.99 6.67 -1.98 6.34 -3 6 C-1.125 1.125 -1.125 1.125 0 0 Z " fill="#232323" transform="translate(412,492)"/>
<path d="M0 0 C0.33 0.66 0.66 1.32 1 2 C1.66 2.33 2.32 2.66 3 3 C2.01 4.485 2.01 4.485 1 6 C-0.32 6 -1.64 6 -3 6 C-2 4 -1 2 0 0 Z " fill="#0F0F0F" transform="translate(340,454)"/>
<path d="M0 0 C0.33 0.99 0.66 1.98 1 3 C-1.97 5.475 -1.97 5.475 -5 8 C-3.8141763 4.62496331 -2.72426311 2.35277269 0 0 Z " fill="#E2E2E2" transform="translate(437,409)"/>
<path d="M0 0 C1.37562854 1.28965176 2.70766393 2.62689293 4 4 C4 4.66 4 5.32 4 6 C2.35 6.33 0.7 6.66 -1 7 C-0.67 4.69 -0.34 2.38 0 0 Z " fill="#E5E5E5" transform="translate(588,400)"/>
<path d="M0 0 C1.98 0.66 3.96 1.32 6 2 C5.67 3.98 5.34 5.96 5 8 C2.74754119 5.31158141 1.11786042 3.35358125 0 0 Z " fill="#141414" transform="translate(561,352)"/>
<path d="M0 0 C0.66 0.99 1.32 1.98 2 3 C0.68 5.31 -0.64 7.62 -2 10 C-2.6875 8.375 -2.6875 8.375 -3 6 C-1.5625 2.75 -1.5625 2.75 0 0 Z " fill="#E8E8E8" transform="translate(408,279)"/>
<path d="M0 0 C2 3 2 3 2 5 C0.02 5.99 0.02 5.99 -2 7 C-2 3 -2 3 0 0 Z " fill="#171717" transform="translate(421,262)"/>
<path d="M0 0 C0 0.66 0 1.32 0 2 C-1.98 2.33 -3.96 2.66 -6 3 C-6 2.01 -6 1.02 -6 0 C-3.50907189 -1.24546405 -2.58919267 -0.7767578 0 0 Z " fill="#191919" transform="translate(955,729)"/>
<path d="M0 0 C-0.99 0 -1.98 0 -3 0 C-3.33 0.99 -3.66 1.98 -4 3 C-7 2 -7 2 -10 0 C-6.33694766 -0.74926071 -3.57644848 -1.2380014 0 0 Z " fill="#2A2A2A" transform="translate(292,723)"/>
<path d="M0 0 C0.93423645 3.01031744 1.04449911 3.86650268 0 7 C-0.66 7.66 -1.32 8.32 -2 9 C-2.6875 7.3125 -2.6875 7.3125 -3 5 C-1.5625 2.25 -1.5625 2.25 0 0 Z " fill="#232323" transform="translate(173,684)"/>
<path d="M0 0 C1.32 0.33 2.64 0.66 4 1 C3.67 2.32 3.34 3.64 3 5 C0.525 4.01 0.525 4.01 -2 3 C-1.34 2.01 -0.68 1.02 0 0 Z " fill="#131313" transform="translate(535,609)"/>
<path d="M0 0 C1.32 0 2.64 0 4 0 C3.34 1.98 2.68 3.96 2 6 C1.01 4.68 0.02 3.36 -1 2 C-0.67 1.34 -0.34 0.68 0 0 Z " fill="#EDEDED" transform="translate(666,571)"/>
<path d="M0 0 C1.70840281 1.63412443 2.93453047 2.86906094 4 5 C3.01 6.32 2.02 7.64 1 9 C-1.125 2.25 -1.125 2.25 0 0 Z " fill="#101010" transform="translate(620,559)"/>
<path d="M0 0 C0.99 0.33 1.98 0.66 3 1 C2.34 2.65 1.68 4.3 1 6 C0.01 5.34 -0.98 4.68 -2 4 C-1.34 2.68 -0.68 1.36 0 0 Z " fill="#141414" transform="translate(420,560)"/>
<path d="M0 0 C0.66 0.66 1.32 1.32 2 2 C-1.75 7.875 -1.75 7.875 -4 9 C-2.80100302 5.9168649 -1.52299523 2.93720508 0 0 Z " fill="#E2E2E2" transform="translate(428,552)"/>
<path d="M0 0 C0.33 0.66 0.66 1.32 1 2 C1.99 2 2.98 2 4 2 C3.34 3.65 2.68 5.3 2 7 C0.4375 5.75 0.4375 5.75 -1 4 C-0.6875 1.8125 -0.6875 1.8125 0 0 Z " fill="#111111" transform="translate(427,545)"/>
<path d="M0 0 C1.98 0.495 1.98 0.495 4 1 C2.515 3.475 2.515 3.475 1 6 C-0.0625 4.125 -0.0625 4.125 -1 2 C-0.67 1.34 -0.34 0.68 0 0 Z " fill="#1B1B1B" transform="translate(358,531)"/>
<path d="M0 0 C0.66 1.32 1.32 2.64 2 4 C1.01 4.99 0.02 5.98 -1 7 C-1.625 4.625 -1.625 4.625 -2 2 C-1.34 1.34 -0.68 0.68 0 0 Z " fill="#0E0E0E" transform="translate(365,520)"/>
<path d="M0 0 C1.32 1.32 2.64 2.64 4 4 C3.34 5.32 2.68 6.64 2 8 C1.01 5.69 0.02 3.38 -1 1 C-0.67 0.67 -0.34 0.34 0 0 Z " fill="#131313" transform="translate(587,503)"/>
<path d="M0 0 C0.66 0.99 1.32 1.98 2 3 C1.1875 4.9375 1.1875 4.9375 0 7 C-0.99 7.33 -1.98 7.66 -3 8 C-2.37240135 5.07120629 -1.41377341 2.63904371 0 0 Z " fill="#DBDBDB" transform="translate(463,492)"/>
<path d="M0 0 C0.99 0.99 1.98 1.98 3 3 C2.34 4.65 1.68 6.3 1 8 C-1 5 -1 5 -0.625 2.3125 C-0.41875 1.549375 -0.2125 0.78625 0 0 Z " fill="#101010" transform="translate(731,440)"/>
<path d="M0 0 C0.99 0.33 1.98 0.66 3 1 C4.1875 3.5625 4.1875 3.5625 5 6 C4.01 6 3.02 6 2 6 C0.3125 3.5 0.3125 3.5 -1 1 C-0.67 0.67 -0.34 0.34 0 0 Z " fill="#191919" transform="translate(722,427)"/>
<path d="M0 0 C0.66 0.33 1.32 0.66 2 1 C0.68 3.31 -0.64 5.62 -2 8 C-2.66 7.01 -3.32 6.02 -4 5 C-3.67 4.01 -3.34 3.02 -3 2 C-2.01 2 -1.02 2 0 2 C0 1.34 0 0.68 0 0 Z " fill="#DBDBDB" transform="translate(390,311)"/>
<path d="M0 0 C0.99 0 1.98 0 3 0 C2.34 1.65 1.68 3.3 1 5 C-0.32 4.67 -1.64 4.34 -3 4 C-1.6875 2 -1.6875 2 0 0 Z " fill="#ECECEC" transform="translate(437,229)"/>
</svg>
