<?xml version="1.0" encoding="UTF-8"?>
<svg version="1.1" xmlns="http://www.w3.org/2000/svg" width="500" height="500">
<path d="M0 0 C1.78227493 -0.01925285 1.78227493 -0.01925285 3.60055542 -0.03889465 C4.89011139 -0.04628159 6.17966736 -0.05366852 7.50830078 -0.0612793 C8.82774689 -0.06935104 10.14719299 -0.07742279 11.50662231 -0.08573914 C14.30259066 -0.10076493 17.0985336 -0.11060385 19.89453125 -0.11816406 C23.4748431 -0.12923259 27.05453411 -0.16363772 30.63462639 -0.20333576 C33.38844964 -0.22948317 36.14212447 -0.2378541 38.89606094 -0.24144554 C40.85705662 -0.24868244 42.8179509 -0.27512844 44.77877808 -0.30183411 C46.57050949 -0.29744576 46.57050949 -0.29744576 48.3984375 -0.29296875 C49.97490555 -0.30176811 49.97490555 -0.30176811 51.58322144 -0.31074524 C55.01782897 0.29944823 56.14953486 1.51937333 58.32861328 4.17700195 C59.54199219 5.921875 59.54199219 5.921875 60.55517578 7.6887207 C61.13525391 8.68838867 61.13525391 8.68838867 61.72705078 9.70825195 C62.13181641 10.41981445 62.53658203 11.13137695 62.95361328 11.86450195 C63.84146954 13.39975339 64.72949508 14.93490694 65.61767578 16.4699707 C66.06788086 17.25291504 66.51808594 18.03585938 66.98193359 18.8425293 C69.07346422 22.46820294 71.20185197 26.07192315 73.32861328 29.67700195 C74.15951307 31.08966203 74.99024164 32.50242282 75.82080078 33.9152832 C77.51112168 36.78909305 79.20411144 39.66130873 80.89892578 42.5324707 C81.75063964 43.97639185 82.60220302 45.42040177 83.45361328 46.86450195 C84.08009766 47.92689087 84.08009766 47.92689087 84.71923828 49.01074219 C87.29940914 53.39672839 89.8267145 57.8084282 92.32861328 62.23950195 C95.66657862 68.11648758 99.21230977 73.84008737 102.81982422 79.5546875 C105.40643057 83.66356704 107.87214733 87.80339157 110.16845703 92.08325195 C112.04589267 95.47148596 114.12710657 98.7363238 116.19189453 102.01293945 C117.32861328 104.17700195 117.32861328 104.17700195 117.32861328 107.17700195 C117.98861328 107.17700195 118.64861328 107.17700195 119.32861328 107.17700195 C119.68487793 107.83837158 120.04114258 108.49974121 120.40820312 109.18115234 C124.13689246 116.06502597 127.99772664 122.85899601 131.95361328 129.61450195 C132.55898926 130.65074707 133.16436523 131.68699219 133.78808594 132.75463867 C138.21020501 140.30817731 142.69970098 147.81936043 147.21875 155.31518555 C149.89402979 159.76027957 152.52244796 164.22435404 155.07861328 168.73950195 C159.05079641 175.75119628 163.1553546 182.68348297 167.26611328 189.61450195 C167.79327438 190.50345657 167.79327438 190.50345657 168.33108521 191.41036987 C172.72408847 198.81547936 177.14030712 206.20616107 181.58789062 213.57861328 C183.82179013 217.29431458 185.94040222 221.05903168 188.01611328 224.86450195 C189.7332637 227.88995745 191.56037895 230.84459764 193.39111328 233.80200195 C194.07173828 234.90801758 194.75236328 236.0140332 195.45361328 237.15356445 C196.5418454 238.90833875 197.64059539 240.656844 198.76611328 242.38793945 C201.41629664 246.60246716 201.41629664 246.60246716 200.91845703 249.86450195 C200.62648438 251.00918945 200.62648438 251.00918945 200.32861328 252.17700195 C189.44421546 252.41047843 178.5604297 252.58727039 167.67402172 252.69512367 C162.61681281 252.74693474 157.56133803 252.81700024 152.50512695 252.93139648 C147.60956054 253.04144305 142.71564288 253.10012794 137.81893349 253.12577438 C135.96713662 253.14400796 134.11541235 253.17960306 132.26433372 253.23430252 C118.39199489 253.62727652 109.01865983 250.61335077 97.21236801 243.32649994 C94.85055843 241.88528505 92.41854438 240.61170972 89.94970703 239.36450195 C79.95945396 234.14523513 70.08033387 228.74984038 60.24414062 223.24633789 C52.32036668 218.82292088 44.31202439 214.55757422 36.29736328 210.30200195 C33.21433612 208.6594581 30.14955754 206.98523995 27.08642578 205.3059082 C20.36264424 201.63241067 13.56152882 198.11253381 6.75830078 194.58911133 C0.89488677 191.5431308 -4.91640894 188.42346856 -10.67138672 185.17700195 C-10.67138672 184.18700195 -10.67138672 183.19700195 -10.67138672 182.17700195 C16.05861328 182.17700195 42.78861328 182.17700195 70.32861328 182.17700195 C63.78858014 171.2692272 63.78858014 171.2692272 57.14111328 160.42700195 C54.18885277 155.65437528 51.470376 150.80387533 48.82470703 145.85668945 C47.26034183 143.05471941 45.5722695 140.37070281 43.82861328 137.67700195 C40.97723806 133.26579345 38.41158407 128.77138704 35.93408203 124.1418457 C32.83938547 118.42682213 29.56560784 112.81225564 26.32861328 107.17700195 C25.97831055 106.53569336 25.62800781 105.89438477 25.26708984 105.23364258 C23.44714906 101.5880633 23.44714906 101.5880633 20.32861328 99.17700195 C20.18166016 99.95817383 20.18166016 99.95817383 20.03173828 100.75512695 C19.08842851 104.00430505 17.60340262 106.92117346 16.07861328 109.92700195 C15.73507813 110.60802979 15.39154297 111.28905762 15.03759766 111.99072266 C7.92619238 125.96021242 0.59891405 139.87027914 -7.78466797 153.12231445 C-10.00025854 156.70946109 -12.05974 160.36809346 -14.10888672 164.05200195 C-20.61226834 175.72138745 -27.60567628 187.08692013 -34.58056641 198.47851562 C-38.6150789 205.0716544 -42.5988482 211.69420362 -46.56542969 218.32836914 C-47.71515338 220.25015894 -48.86678506 222.17079312 -50.01904297 224.09106445 C-50.40729248 224.73825439 -50.79554199 225.38544434 -51.19555664 226.05224609 C-51.96168368 227.32805262 -52.72874999 228.60329565 -53.49682617 229.87792969 C-55.16614453 232.6507771 -56.81634797 235.42923454 -58.42919922 238.2355957 C-58.94224609 239.12375977 -59.45529297 240.01192383 -59.98388672 240.92700195 C-60.41314453 241.6849707 -60.84240234 242.44293945 -61.28466797 243.22387695 C-63.57121753 246.44436929 -65.73339638 247.93432995 -69.57788086 248.92895508 C-70.69283936 249.10362305 -71.80779785 249.27829102 -72.95654297 249.45825195 C-74.20064941 249.6588623 -75.44475586 249.85947266 -76.7265625 250.06616211 C-78.06231608 250.26991416 -79.39809125 250.47352468 -80.73388672 250.67700195 C-82.09848112 250.89384709 -83.46290163 251.11178922 -84.82714844 251.33081055 C-90.69928037 252.26866221 -96.57788647 253.16387797 -102.45654297 254.05981445 C-104.06991808 254.30659742 -105.68320623 254.55394996 -107.29638672 254.80200195 C-108.05153564 254.91801758 -108.80668457 255.0340332 -109.5847168 255.15356445 C-114.71887185 255.96589059 -119.7008259 257.0815443 -124.71826172 258.42700195 C-129.43136193 259.62397978 -134.20739509 260.49013588 -138.97998047 261.4152832 C-143.36512445 262.32015418 -147.67320489 263.432824 -151.98779297 264.6262207 C-154.94311398 265.2327713 -157.66249649 265.26978711 -160.67138672 265.17700195 C-161.00138672 264.51700195 -161.33138672 263.85700195 -161.67138672 263.17700195 C-158.69660447 256.37578609 -154.40942449 250.13445199 -150.38623047 243.91918945 C-148.72363646 241.26055393 -147.21233262 238.56657558 -145.73388672 235.80200195 C-141.7017786 228.27254807 -137.11502901 221.09050427 -132.59326172 213.84887695 C-128.38296321 207.06740378 -124.44885591 200.20630193 -120.67138672 193.17700195 C-114.19534356 181.22298051 -107.36371955 169.49446323 -100.38085938 157.83129883 C-96.31707121 151.02784432 -92.40534003 144.16720798 -88.67138672 137.17700195 C-88.01138672 137.17700195 -87.35138672 137.17700195 -86.67138672 137.17700195 C-86.55239014 136.60240234 -86.43339355 136.02780273 -86.31079102 135.43579102 C-85.63030048 133.03185882 -84.69059856 131.19700049 -83.44091797 129.03637695 C-82.97500244 128.22563721 -82.50908691 127.41489746 -82.02905273 126.57958984 C-81.51914795 125.70423584 -81.00924316 124.82888184 -80.48388672 123.92700195 C-79.95142334 123.00459717 -79.41895996 122.08219238 -78.87036133 121.13183594 C-77.14289223 118.14365263 -75.40776186 115.1600177 -73.67138672 112.17700195 C-73.10097656 111.19425293 -72.53056641 110.21150391 -71.94287109 109.19897461 C-65.0287827 97.28724531 -58.0611537 85.40766118 -51.02124023 73.56982422 C-47.80935883 68.15610334 -44.69649979 62.69731173 -41.67138672 57.17700195 C-41.01138672 57.17700195 -40.35138672 57.17700195 -39.67138672 57.17700195 C-39.54570312 56.39389648 -39.54570312 56.39389648 -39.41748047 55.5949707 C-38.38336438 52.24356831 -36.56952956 49.44888149 -34.73388672 46.48950195 C-33.90759563 45.13580515 -33.08210364 43.78162032 -32.25732422 42.42700195 C-31.6148877 41.37512695 -31.6148877 41.37512695 -30.95947266 40.30200195 C-28.88893137 36.88615825 -26.87571326 33.43723181 -24.85888672 29.98950195 C-23.13181647 27.05076626 -21.4015743 24.11390308 -19.67138672 21.17700195 C-19.15012207 20.29061035 -18.62885742 19.40421875 -18.09179688 18.4909668 C-16.45718617 15.71633478 -14.81511837 12.94623835 -13.17138672 10.17700195 C-12.65471436 9.29761963 -12.13804199 8.4182373 -11.60571289 7.51220703 C-11.12207275 6.70033936 -10.63843262 5.88847168 -10.14013672 5.05200195 C-9.71152344 4.32754883 -9.28291016 3.6030957 -8.84130859 2.85668945 C-6.52465879 -0.46938539 -3.78224936 0.03548093 0 0 Z M18.32861328 53.17700195 C17.99748773 57.92313485 18.61155929 60.29549625 21.32861328 64.17700195 C24.00980151 68.16946713 26.52839393 72.17488512 28.89111328 76.36450195 C37.23928296 91.12253548 45.74521323 105.79938289 54.68920898 120.20532227 C59.30345333 127.66169343 63.46510987 135.30690241 67.32861328 143.17700195 C67.98861328 143.17700195 68.64861328 143.17700195 69.32861328 143.17700195 C69.56708984 144.01102539 69.80556641 144.84504883 70.05126953 145.7043457 C71.5310889 149.7274632 73.51341363 153.11116342 75.76611328 156.73950195 C76.16121094 157.3859668 76.55630859 158.03243164 76.96337891 158.69848633 C77.73141396 159.95469009 78.5039505 161.20815549 79.28149414 162.45849609 C80.20520274 163.97446364 81.06878109 165.52671971 81.92236328 167.08325195 C83.22428571 169.49708204 83.22428571 169.49708204 86.39111328 170.11450195 C87.36048828 170.13512695 88.32986328 170.15575195 89.32861328 170.17700195 C89.98861328 169.51700195 90.64861328 168.85700195 91.32861328 168.17700195 C91.11167146 162.63820613 89.28169984 158.78963448 86.32861328 154.23950195 C85.50485923 152.92182663 84.68331421 151.60276822 83.86376953 150.2824707 C83.44240723 149.60748535 83.02104492 148.9325 82.58691406 148.23706055 C80.54704266 144.89743406 78.6601184 141.47576453 76.76611328 138.05200195 C72.8195842 130.96196177 68.61979658 124.06476113 64.32861328 117.17700195 C61.3348444 112.30040493 58.42289566 107.39991729 55.70361328 102.36450195 C51.26010849 94.13879726 46.57442072 86.04916439 41.91748047 77.94311523 C40.86233947 76.10618414 39.808294 74.26862332 38.75537109 72.43041992 C37.2617769 69.82347927 35.76452621 67.21867523 34.26611328 64.61450195 C33.58705933 63.42824219 33.58705933 63.42824219 32.89428711 62.21801758 C29.64205803 55.77317324 29.64205803 55.77317324 24.39111328 51.30200195 C21.82982621 51.14677243 20.49451809 51.86198832 18.32861328 53.17700195 Z M-36.22607422 81.8684082 C-38.22680593 84.84877279 -39.98012193 87.92544887 -41.71508789 91.06665039 C-45.33696239 97.61676995 -49.08316129 104.08947504 -52.85888672 110.55200195 C-53.48730469 111.63094727 -54.11572266 112.70989258 -54.76318359 113.8215332 C-55.36582031 114.85407227 -55.96845703 115.88661133 -56.58935547 116.95043945 C-57.13358154 117.88291504 -57.67780762 118.81539062 -58.23852539 119.77612305 C-59.33173271 121.60788327 -60.48811254 123.40209069 -61.67138672 125.17700195 C-61.67138672 126.16700195 -61.67138672 127.15700195 -61.67138672 128.17700195 C-62.33138672 128.17700195 -62.99138672 128.17700195 -63.67138672 128.17700195 C-63.97689453 128.76223633 -64.28240234 129.3474707 -64.59716797 129.95043945 C-70.6624804 141.32930729 -77.49215481 152.28508609 -84.48388672 163.11450195 C-89.83462527 171.46625139 -94.30904455 180.27859602 -98.67138672 189.17700195 C-97.68138672 190.49700195 -96.69138672 191.81700195 -95.67138672 193.17700195 C-92.44064394 192.90777339 -90.99394765 192.49956289 -88.67138672 190.17700195 C-87.13324169 187.8697844 -85.78875989 185.6238866 -84.46826172 183.1965332 C-82.50210216 179.63160586 -80.46583112 176.11920765 -78.37451172 172.6262207 C-77.80861328 171.68069336 -77.24271484 170.73516602 -76.65966797 169.76098633 C-75.4880575 167.80874102 -74.31351408 165.85825326 -73.13623047 163.90942383 C-72.57548828 162.9703418 -72.01474609 162.03125977 -71.43701172 161.0637207 C-70.92944336 160.220271 -70.421875 159.37682129 -69.89892578 158.5078125 C-68.77054413 156.36527877 -68.12806117 154.54250742 -67.67138672 152.17700195 C-67.01138672 152.17700195 -66.35138672 152.17700195 -65.67138672 152.17700195 C-65.37748047 151.6149707 -65.08357422 151.05293945 -64.78076172 150.47387695 C-59.89620567 141.32235241 -54.503765 132.48251738 -49.13916016 123.60717773 C-47.07979201 120.19750533 -45.03147182 116.78125816 -42.98388672 113.36450195 C-42.26911452 112.17305277 -41.55427128 110.98164622 -40.83935547 109.7902832 C-40.4879248 109.20456543 -40.13649414 108.61884766 -39.77441406 108.01538086 C-29.67138672 91.17700195 -29.67138672 91.17700195 -27.89794922 88.41918945 C-26.41195064 86.19745209 -26.41195064 86.19745209 -26.92138672 83.42700195 C-27.46641382 81.23290365 -27.46641382 81.23290365 -28.67138672 80.17700195 C-31.96714501 79.41054654 -33.85161666 79.28514156 -36.22607422 81.8684082 Z M74.32861328 92.17700195 C73.66861328 92.83700195 73.00861328 93.49700195 72.32861328 94.17700195 C72.65345911 98.39889905 73.77720758 101.49650811 75.86376953 105.14575195 C76.40404785 106.09836914 76.94432617 107.05098633 77.50097656 108.0324707 C78.10409668 109.07016602 78.7072168 110.10786133 79.32861328 111.17700195 C79.97942871 112.30750977 80.63024414 113.43801758 81.30078125 114.6027832 C83.07415673 117.67378506 84.8638235 120.73496029 86.65991211 123.79272461 C87.7638334 125.67311845 88.86375131 127.5558135 89.96337891 129.4387207 C93.8060667 136.00064573 97.75590922 142.47549316 101.87036133 148.87182617 C103.54386076 151.5172609 105.06378871 154.21688231 106.51611328 156.98950195 C107.24894531 158.33915039 107.24894531 158.33915039 107.99658203 159.71606445 C108.80233468 161.20469838 109.59927991 162.69821129 110.37939453 164.20043945 C111.37222698 166.06561931 111.37222698 166.06561931 113.32861328 168.17700195 C116.45623595 168.76143158 116.45623595 168.76143158 119.32861328 168.17700195 C120.59106429 167.11261976 120.59106429 167.11261976 120.70361328 164.6809082 C120.17180611 159.71183498 117.90874227 156.32502955 115.32861328 152.11450195 C114.58345459 150.8634668 114.58345459 150.8634668 113.82324219 149.5871582 C110.22061446 143.56153448 106.53785145 137.58183628 102.78955078 131.64575195 C101.32861328 129.17700195 101.32861328 129.17700195 100.32861328 126.17700195 C99.66861328 126.17700195 99.00861328 126.17700195 98.32861328 126.17700195 C98.24998047 125.66266602 98.17134766 125.14833008 98.09033203 124.6184082 C97.00057678 121.12560289 95.06081849 118.19981199 93.14111328 115.11450195 C89.79057215 109.65448409 86.6345233 104.15342064 83.71533203 98.4465332 C82.15890748 95.89925809 80.6437723 94.06648445 78.32861328 92.17700195 C77.00861328 92.17700195 75.68861328 92.17700195 74.32861328 92.17700195 Z M-15.67138672 105.17700195 C-19.7620836 108.92980296 -22.40637621 112.72796924 -25.10888672 117.55200195 C-25.97815118 119.06607449 -26.84935687 120.57903365 -27.72216797 122.09106445 C-28.425271 123.31164551 -28.425271 123.31164551 -29.14257812 124.55688477 C-31.96086326 129.38694482 -34.88177342 134.15466752 -37.79638672 138.92700195 C-38.70578003 140.41707764 -38.70578003 140.41707764 -39.63354492 141.93725586 C-41.31152985 144.68463252 -42.99131778 147.43089943 -44.67138672 150.17700195 C-45.42144648 151.40613215 -46.17145636 152.6352928 -46.92138672 153.86450195 C-49.79283483 158.55453387 -52.69565735 163.22248085 -55.64404297 167.86450195 C-56.17433105 168.70013672 -56.70461914 169.53577148 -57.25097656 170.39672852 C-58.28917311 172.03047723 -59.32969836 173.66274952 -60.37304688 175.29321289 C-62.81949234 179.1400712 -65.22418978 183.01245723 -67.53466797 186.94262695 C-67.94628174 187.63646484 -68.35789551 188.33030273 -68.78198242 189.04516602 C-69.83841381 191.57735348 -69.90334696 193.45818529 -69.67138672 196.17700195 C-68.56707532 197.48962319 -68.56707532 197.48962319 -65.81591797 197.4934082 C-62.65249773 197.49316311 -62.65249773 197.49316311 -60.87060547 195.5168457 C-60.37173828 194.72407227 -59.87287109 193.93129883 -59.35888672 193.11450195 C-58.77107422 192.19797852 -58.18326172 191.28145508 -57.57763672 190.3371582 C-56.94857422 189.29430664 -56.31951172 188.25145508 -55.67138672 187.17700195 C-55.16285156 186.34144775 -55.16285156 186.34144775 -54.64404297 185.48901367 C-52.76425772 182.39821293 -50.90851225 179.29400252 -49.06591797 176.1809082 C-46.25701296 171.4537266 -43.33064052 166.80184903 -40.38500977 162.15893555 C-37.98082638 158.34728941 -35.67558156 154.4889415 -33.41357422 150.59106445 C-29.34446569 143.58205526 -25.13812669 136.66019665 -20.92138672 129.73950195 C-19.78645263 127.87448339 -18.65182413 126.00927923 -17.51727295 124.14402771 C-16.499155 122.47055277 -15.48031386 120.79751788 -14.46142578 119.12451172 C-13.57535645 117.66549438 -13.57535645 117.66549438 -12.67138672 116.17700195 C-12.0987207 115.26942139 -11.52605469 114.36184082 -10.93603516 113.42675781 C-9.49273571 111.28932946 -9.49273571 111.28932946 -9.67138672 108.98950195 C-11.10820821 106.38526301 -12.90876346 106.02703988 -15.67138672 105.17700195 Z M91.32861328 177.17700195 C91.43171567 182.33212159 92.88549294 185.53125451 95.66845703 189.66918945 C97.8595338 192.97900424 99.8668789 196.38839159 101.89111328 199.80200195 C103.35486479 202.27004266 104.83366274 204.72774144 106.32861328 207.17700195 C106.67690186 207.76457275 107.02519043 208.35214355 107.3840332 208.95751953 C108.49368797 210.8057103 108.49368797 210.8057103 110.32861328 213.17700195 C113.45623595 213.76143158 113.45623595 213.76143158 116.32861328 213.17700195 C117.62015962 212.09586018 117.62015962 212.09586018 117.60205078 209.51293945 C117.27009724 205.46310625 116.04237911 203.27777435 113.95361328 199.80200195 C113.60290771 199.21201416 113.25220215 198.62202637 112.89086914 198.01416016 C111.71981793 196.05798683 110.5267534 194.11669241 109.32861328 192.17700195 C108.66321533 191.09249756 108.66321533 191.09249756 107.984375 189.98608398 C103.66992459 182.17444641 103.66992459 182.17444641 98.32861328 175.17700195 C94.36744528 174.78609862 94.36744528 174.78609862 91.32861328 177.17700195 Z " fill="#0A0909" transform="translate(231.67138671875,93.822998046875)"/>
<path d="M0 0 C15.70106109 -0.5233687 35.51427109 2.58326491 48.5625 11.8125 C50 14 50 14 50.1875 17.4375 C48.62748363 22.11754911 46.22254018 23.83166855 42 26 C27.49205429 32.92243845 10.12140978 35.03273896 -5.625 37.1875 C-6.73464111 37.3421875 -7.84428223 37.496875 -8.98754883 37.65625 C-32.49771533 40.68323946 -56.08106399 41.34803013 -79.75289536 41.25774765 C-81.9799281 41.24984953 -84.20694715 41.24536744 -86.43399048 41.24160767 C-115.7300113 41.18421475 -144.88565794 40.09727802 -174.12109375 38.234375 C-175.14957428 38.16888962 -176.17805481 38.10340424 -177.23770142 38.03593445 C-178.78583023 37.93729851 -178.78583023 37.93729851 -180.36523438 37.83666992 C-181.40010986 37.77079681 -182.43498535 37.70492371 -183.5012207 37.63705444 C-185.57029142 37.50487729 -187.63930306 37.37177189 -189.70825195 37.23770142 C-206.460114 36.15808283 -223.18904956 35.5505183 -239.97314453 35.29077148 C-249.35372569 35.1423417 -258.64757439 34.80659043 -268 34 C-267.67 33.01 -267.34 32.02 -267 31 C-249.26856923 28.1195777 -231.6180489 26.24261605 -213.71044922 24.9519043 C-212.91857712 24.89453094 -212.12670502 24.83715759 -211.31083679 24.77804565 C-209.83123178 24.67201098 -208.35143315 24.56862735 -206.87141418 24.46853638 C-202.54348366 24.16387471 -198.29215496 23.62157877 -194 23 C-192.34814778 22.87868282 -190.69413444 22.78255019 -189.0390625 22.71875 C-188.15476562 22.68136719 -187.27046875 22.64398438 -186.359375 22.60546875 C-185.45703125 22.57066406 -184.5546875 22.53585937 -183.625 22.5 C-181.82540552 22.42998696 -180.02592062 22.35709504 -178.2265625 22.28125 C-177.43846191 22.25095703 -176.65036133 22.22066406 -175.83837891 22.18945312 C-173.47200792 22.03150509 -171.14920612 21.79239728 -168.79541016 21.51367188 C-163.88335483 20.95390143 -158.98543733 20.69474796 -154.046875 20.5 C-153.04553528 20.45971176 -152.04419556 20.41942352 -151.01251221 20.37791443 C-147.59188834 20.24527505 -144.17103894 20.12144992 -140.75 20 C-139.55020508 19.95642365 -138.35041016 19.91284729 -137.11425781 19.86795044 C-103.33044738 18.68067995 -69.52065562 18.57608846 -35.71961594 18.36512661 C-30.96362263 18.33498804 -26.20765381 18.30166074 -21.45168304 18.26817513 C-18.11812773 18.24645618 -14.78457692 18.23043819 -11.45098877 18.21470642 C-9.4373762 18.20125485 -7.42376523 18.18756155 -5.41015625 18.17358398 C-4.49428616 18.17096558 -3.57841606 18.16834717 -2.63479233 18.16564941 C-1.79890705 18.15875595 -0.96302177 18.15186249 -0.10180664 18.14476013 C0.98480507 18.13897776 0.98480507 18.13897776 2.09336853 18.13307858 C4.2235688 18.06403542 4.2235688 18.06403542 7 17 C6.41089844 16.02417969 5.82179688 15.04835938 5.21484375 14.04296875 C4.45519387 12.75812884 3.69610846 11.47295507 2.9375 10.1875 C2.35258789 9.22360352 2.35258789 9.22360352 1.75585938 8.24023438 C0.75869241 6.5371085 -0.12812687 4.77054142 -1 3 C-0.67 2.01 -0.34 1.02 0 0 Z " fill="#151515" transform="translate(433,329)"/>
<path d="M0 0 C25.77857787 -1.20167261 25.77857787 -1.20167261 35.34228516 7.18554688 C36.33228516 7.84554688 37.32228516 8.50554687 38.34228516 9.18554688 C38.01228516 10.17554688 37.68228516 11.16554688 37.34228516 12.18554688 C36.68085007 12.2061618 36.01941498 12.22677673 35.3379364 12.24801636 C-3.58062139 13.40335764 -3.58062139 13.40335764 -42.47021484 15.24804688 C-43.53062485 15.30807892 -43.53062485 15.30807892 -44.61245728 15.36932373 C-50.70555543 15.71904513 -56.63893021 16.16907397 -62.65771484 17.18554688 C-64.57089122 17.37569261 -66.48659249 17.5417356 -68.40380859 17.68554688 C-69.48186768 17.76748291 -70.55992676 17.84941895 -71.6706543 17.93383789 C-72.80075928 18.01690186 -73.93086426 18.09996582 -75.09521484 18.18554688 C-76.25432373 18.27312256 -77.41343262 18.36069824 -78.60766602 18.45092773 C-86.00270677 19.00515549 -93.39858686 19.514155 -100.80224609 19.93945312 C-103.49284846 20.17133814 -106.01346345 20.65586245 -108.65771484 21.18554688 C-110.59337529 21.33637756 -112.53139054 21.45811842 -114.47021484 21.56054688 C-123.8368483 22.19961453 -133.10829941 23.43663178 -142.41601562 24.64501953 C-146.53774761 25.17461641 -150.6625972 25.6775405 -154.78770447 26.18006897 C-175.44706226 28.69942492 -195.96808365 31.24711293 -216.34863281 35.52050781 C-220.27726114 36.3100595 -224.21642402 37.02338234 -228.16162109 37.72460938 C-229.27120178 37.92234955 -229.27120178 37.92234955 -230.40319824 38.12408447 C-233.34086063 38.64659643 -236.27870344 39.16789978 -239.21795654 39.68139648 C-246.66150536 40.98395706 -253.98590746 42.42658942 -261.25610352 44.51171875 C-264.67749029 45.47166868 -268.10933373 46.18172313 -271.59521484 46.87304688 C-272.84173828 47.12441406 -274.08826172 47.37578125 -275.37255859 47.63476562 C-278.65771484 48.18554688 -278.65771484 48.18554688 -282.65771484 48.18554688 C-282.32771484 47.19554687 -281.99771484 46.20554687 -281.65771484 45.18554688 C-279.96557617 44.37353516 -279.96557617 44.37353516 -277.73974609 43.75585938 C-276.49245728 43.40261597 -276.49245728 43.40261597 -275.2199707 43.04223633 C-274.31255127 42.80077881 -273.40513184 42.55932129 -272.47021484 42.31054688 C-271.53636963 42.05297607 -270.60252441 41.79540527 -269.64038086 41.5300293 C-261.11934532 39.22019135 -252.52746884 37.245627 -243.90380859 35.36132812 C-240.23262935 34.55750105 -236.59656893 33.66266605 -232.95849609 32.72070312 C-226.50673097 31.09161564 -220.00045821 29.86805251 -213.4546814 28.68167114 C-204.29031305 27.02012983 -195.13720192 25.33268625 -186.03857422 23.33764648 C-125.25760524 10.03216787 -62.07094848 3.1487065 0 0 Z " fill="#1C1A1B" transform="translate(297.65771484375,333.814453125)"/>
<path d="M0 0 C0.87978516 0.00322266 1.75957031 0.00644531 2.66601562 0.00976562 C4.00889648 0.02233398 4.00889648 0.02233398 5.37890625 0.03515625 C6.30123047 0.03966797 7.22355469 0.04417969 8.17382812 0.04882812 C10.42975673 0.06051687 12.68554592 0.0769017 14.94140625 0.09765625 C14.94140625 0.42765625 14.94140625 0.75765625 14.94140625 1.09765625 C10.98140625 1.42765625 7.02140625 1.75765625 2.94140625 2.09765625 C3.43640625 4.57265625 3.43640625 4.57265625 3.94140625 7.09765625 C3.94140625 8.08765625 3.94140625 9.07765625 3.94140625 10.09765625 C4.43640625 11.08765625 4.43640625 11.08765625 4.94140625 12.09765625 C7.4687386 12.75320744 7.4687386 12.75320744 9.94140625 13.09765625 C9.94140625 13.42765625 9.94140625 13.75765625 9.94140625 14.09765625 C7.6079851 14.12558283 5.27492185 14.14491874 2.94140625 14.16015625 C0.99234375 14.17755859 0.99234375 14.17755859 -0.99609375 14.1953125 C-5.10188366 14.16515455 -9.17364095 13.90584021 -13.26953125 13.625 C-24.33751049 12.87620953 -35.42111929 12.75040068 -46.50976562 12.54541016 C-57.39202 12.33962152 -68.21042151 12.04197211 -79.05859375 11.09765625 C-78.72859375 10.10765625 -78.39859375 9.11765625 -78.05859375 8.09765625 C-60.32716298 5.21723395 -42.67664265 3.3402723 -24.76904297 2.04956055 C-23.97717087 1.99218719 -23.18529877 1.93481384 -22.36943054 1.8757019 C-20.88982553 1.76966723 -19.4100269 1.6662836 -17.93000793 1.56619263 C-14.71870416 1.34013512 -11.56124677 1.02581578 -8.37402344 0.56542969 C-5.52091573 0.16288518 -2.87382612 -0.01878318 0 0 Z " fill="#525051" transform="translate(244.05859375,351.90234375)"/>
<path d="M0 0 C9.5913218 1.36250553 19.3372314 3.46055132 26 11 C26.3125 14.5 26.3125 14.5 25 18 C11.37943338 30.7322688 -14.19068593 32.41747474 -32 34 C-30.515 33.505 -30.515 33.505 -29 33 C-29.33 31.68 -29.66 30.36 -30 29 C-25.65827554 26.01018975 -21.34409933 24.84257811 -16.3125 23.5625 C-8.17604791 21.40179263 -0.5182466 18.82655152 7 15 C7 12.36 7 9.72 7 7 C6.34 7 5.68 7 5 7 C5 6.34 5 5.68 5 5 C3.02 4.34 1.04 3.68 -1 3 C-0.67 2.01 -0.34 1.02 0 0 Z " fill="#211F20" transform="translate(457,332)"/>
<path d="M0 0 C0.6875 2.0625 0.6875 2.0625 1 4 C3.64 4 6.28 4 9 4 C9 4.33 9 4.66 9 5 C8.1970752 5.09498779 7.39415039 5.18997559 6.56689453 5.2878418 C-9.46799825 7.2087002 -25.31426996 9.44139489 -41.15234375 12.640625 C-46.27974981 13.67541628 -51.41690454 14.63036998 -56.56640625 15.546875 C-57.30217896 15.67820831 -58.03795166 15.80954163 -58.79602051 15.94485474 C-61.71535708 16.4651717 -64.63479657 16.98468244 -67.55584717 17.49530029 C-75.00089662 18.79803553 -82.32673201 20.24062364 -89.59838867 22.32617188 C-93.01977545 23.28612181 -96.45161889 23.99617625 -99.9375 24.6875 C-101.18402344 24.93886719 -102.43054688 25.19023437 -103.71484375 25.44921875 C-107 26 -107 26 -111 26 C-110.505 24.515 -110.505 24.515 -110 23 C-108.30786133 22.18798828 -108.30786133 22.18798828 -106.08203125 21.5703125 C-104.83474243 21.21706909 -104.83474243 21.21706909 -103.56225586 20.85668945 C-102.65483643 20.61523193 -101.74741699 20.37377441 -100.8125 20.125 C-99.87865479 19.8674292 -98.94480957 19.6098584 -97.98266602 19.34448242 C-89.46163047 17.03464447 -80.86975399 15.06008012 -72.24609375 13.17578125 C-68.58016222 12.37306032 -64.94926744 11.47975217 -61.31640625 10.5390625 C-54.10637942 8.71850039 -46.81214578 7.39274026 -39.5 6.0625 C-36.67279189 5.54374584 -33.84606183 5.02243234 -31.01953125 4.5 C-30.32934402 4.37266983 -29.6391568 4.24533966 -28.92805481 4.114151 C-22.17992981 2.86200512 -15.45493147 1.49557321 -8.75 0.02954102 C-3.32598586 -1.10866195 -3.32598586 -1.10866195 0 0 Z " fill="#353032" transform="translate(126,356)"/>
<path d="M0 0 C0.125 5.75 0.125 5.75 -1 8 C-31.5392995 8.20638953 -31.5392995 8.20638953 -43 7 C-42.67 6.01 -42.34 5.02 -42 4 C-37.62749712 3.31625657 -33.25170165 2.65628353 -28.875 2 C-27.04775391 1.71382813 -27.04775391 1.71382813 -25.18359375 1.421875 C-16.68380379 0.16264686 -8.5841325 -0.23766873 0 0 Z " fill="#918D90" transform="translate(208,356)"/>
<path d="M0 0 C-3.50776784 1.60355101 -6.14354879 2.22036864 -10 2 C-10 2.66 -10 3.32 -10 4 C-7.36 4 -4.72 4 -2 4 C-2 4.33 -2 4.66 -2 5 C-2.94206299 5.16604736 -3.88412598 5.33209473 -4.85473633 5.50317383 C-8.40237115 6.12988255 -11.94877491 6.76334063 -15.49487305 7.39868164 C-17.01994381 7.67098702 -18.54532813 7.94154302 -20.07104492 8.21020508 C-28.03607194 9.61395287 -35.87522141 11.09305459 -43.65551758 13.3371582 C-47.05633554 14.29865157 -50.47068182 14.99995684 -53.9375 15.6875 C-55.18402344 15.93886719 -56.43054688 16.19023437 -57.71484375 16.44921875 C-61 17 -61 17 -65 17 C-64.505 15.515 -64.505 15.515 -64 14 C-62.30786133 13.18798828 -62.30786133 13.18798828 -60.08203125 12.5703125 C-59.25050537 12.33481689 -58.41897949 12.09932129 -57.56225586 11.85668945 C-56.65483643 11.61523193 -55.74741699 11.37377441 -54.8125 11.125 C-53.87865479 10.8674292 -52.94480957 10.6098584 -51.98266602 10.34448242 C-43.35672554 8.00620739 -34.65676212 6.01723473 -25.9296875 4.09765625 C-21.95329565 3.22248759 -18.00523822 2.26763942 -14.0625 1.25 C-3.07894737 -1.53947368 -3.07894737 -1.53947368 0 0 Z " fill="#736E71" transform="translate(80,365)"/>
<path d="M0 0 C1.02577148 0.00676758 1.02577148 0.00676758 2.07226562 0.01367188 C3.73571604 0.0253044 5.3991205 0.04323306 7.0625 0.0625 C7.0625 0.3925 7.0625 0.7225 7.0625 1.0625 C6.06347656 1.11148437 5.06445312 1.16046875 4.03515625 1.2109375 C2.74480469 1.28570312 1.45445312 1.36046875 0.125 1.4375 C-1.16277344 1.50710938 -2.45054687 1.57671875 -3.77734375 1.6484375 C-4.82019531 1.78507812 -5.86304688 1.92171875 -6.9375 2.0625 C-7.2675 2.7225 -7.5975 3.3825 -7.9375 4.0625 C-7.31875 3.85625 -6.7 3.65 -6.0625 3.4375 C-5.010625 3.251875 -5.010625 3.251875 -3.9375 3.0625 C-3.2775 3.7225 -2.6175 4.3825 -1.9375 5.0625 C-2.5975 5.0625 -3.2575 5.0625 -3.9375 5.0625 C-4.5975 6.7125 -5.2575 8.3625 -5.9375 10.0625 C-7.89553507 10.11639087 -9.85398909 10.15524217 -11.8125 10.1875 C-12.90304688 10.21070313 -13.99359375 10.23390625 -15.1171875 10.2578125 C-17.9375 10.0625 -17.9375 10.0625 -19.9375 8.0625 C-18.9475 8.0625 -17.9575 8.0625 -16.9375 8.0625 C-17.7138932 4.9879644 -17.7138932 4.9879644 -19.9375 3.0625 C-13.46975826 0.12261739 -7.02111225 -0.06213374 0 0 Z " fill="#6D6B6C" transform="translate(224.9375,353.9375)"/>
<path d="M0 0 C0.92232422 0.00451172 1.84464844 0.00902344 2.79492188 0.01367188 C5.05085048 0.02536062 7.30663967 0.04174545 9.5625 0.0625 C9.5625 0.3925 9.5625 0.7225 9.5625 1.0625 C3.6225 1.5575 3.6225 1.5575 -2.4375 2.0625 C-2.1075 3.7125 -1.7775 5.3625 -1.4375 7.0625 C-1.4375 8.0525 -1.4375 9.0425 -1.4375 10.0625 C-1.1075 10.7225 -0.7775 11.3825 -0.4375 12.0625 C2.08983235 12.71805119 2.08983235 12.71805119 4.5625 13.0625 C4.5625 13.3925 4.5625 13.7225 4.5625 14.0625 C-0.7175 14.0625 -5.9975 14.0625 -11.4375 14.0625 C-10.4475 13.0725 -9.4575 12.0825 -8.4375 11.0625 C-7.4475 11.0625 -6.4575 11.0625 -5.4375 11.0625 C-4.50684867 8.45667629 -4.28832593 7.42051776 -5.375 4.8125 C-5.725625 4.235 -6.07625 3.6575 -6.4375 3.0625 C-8.4175 4.0525 -8.4175 4.0525 -10.4375 5.0625 C-10.4375 5.7225 -10.4375 6.3825 -10.4375 7.0625 C-13.4075 6.0725 -16.3775 5.0825 -19.4375 4.0625 C-18.7775 3.7325 -18.1175 3.4025 -17.4375 3.0625 C-17.4375 2.4025 -17.4375 1.7425 -17.4375 1.0625 C-11.58861957 0.04355924 -5.92830831 -0.05548453 0 0 Z " fill="#555255" transform="translate(249.4375,351.9375)"/>
<path d="M0 0 C0 0.33 0 0.66 0 1 C-2.31 1.33 -4.62 1.66 -7 2 C-7 3.32 -7 4.64 -7 6 C-14.26 6 -21.52 6 -29 6 C-29 5.01 -29 4.02 -29 3 C-19.08139933 0.66621161 -10.21838503 -0.42511001 0 0 Z " fill="#827E82" transform="translate(208,356)"/>
<path d="M0 0 C0.66 0.99 1.32 1.98 2 3 C-18.46808511 9 -18.46808511 9 -28 9 C-27.67 8.01 -27.34 7.02 -27 6 C-25.05395508 5.10864258 -25.05395508 5.10864258 -22.51953125 4.39453125 C-21.60236328 4.13349609 -20.68519531 3.87246094 -19.74023438 3.60351562 C-18.29100586 3.21196289 -18.29100586 3.21196289 -16.8125 2.8125 C-15.86568359 2.53986328 -14.91886719 2.26722656 -13.94335938 1.98632812 C-4.44279474 -0.65897912 -4.44279474 -0.65897912 0 0 Z " fill="#675F65" transform="translate(43,373)"/>
<path d="M0 0 C-0.33 0.99 -0.66 1.98 -1 3 C-1.66 3 -2.32 3 -3 3 C-3 3.66 -3 4.32 -3 5 C-9.65637843 6.23839599 -16.2471936 6.09139136 -23 6 C-23 5.34 -23 4.68 -23 4 C-22.04287109 3.80083984 -22.04287109 3.80083984 -21.06640625 3.59765625 C-20.24011719 3.42105469 -19.41382812 3.24445313 -18.5625 3.0625 C-17.73878906 2.88847656 -16.91507812 2.71445312 -16.06640625 2.53515625 C-14.02338796 2.19247006 -14.02338796 2.19247006 -13 1 C-8.62512908 0.34376936 -4.43069564 -0.13845924 0 0 Z " fill="#1E1A1D" transform="translate(93,363)"/>
<path d="M0 0 C0.33 0.99 0.66 1.98 1 3 C2.670625 2.7215625 2.670625 2.7215625 4.375 2.4375 C8 2 8 2 10 3 C10 3.66 10 4.32 10 5 C11.93798521 4.69052329 13.87537426 4.37731166 15.8125 4.0625 C16.89144531 3.88847656 17.97039062 3.71445312 19.08203125 3.53515625 C22.04933356 3.06128079 22.04933356 3.06128079 25 2 C25 2.66 25 3.32 25 4 C26.32 4 27.64 4 29 4 C29 4.66 29 5.32 29 6 C5.41761516 6.20638953 5.41761516 6.20638953 -6 5 C-5.67 4.01 -5.34 3.02 -5 2 C-3.35 2 -1.7 2 0 2 C0 1.34 0 0.68 0 0 Z " fill="#443F41" transform="translate(264,362)"/>
<path d="M0 0 C6.68183363 1.0440365 12.7465965 2.4042476 19 5 C17.02 5.99 17.02 5.99 15 7 C15 6.34 15 5.68 15 5 C14.01 5.66 13.02 6.32 12 7 C9.66800612 7.07905064 7.33167378 7.08798769 5 7 C5 6.34 5 5.68 5 5 C3.02 4.34 1.04 3.68 -1 3 C-0.67 2.01 -0.34 1.02 0 0 Z " fill="#3D3B3C" transform="translate(457,332)"/>
<path d="M0 0 C2.3125 -0.25 2.3125 -0.25 5 0 C6.8125 2 6.8125 2 8 4 C7.01 5.98 6.02 7.96 5 10 C3.02 10 1.04 10 -1 10 C-1 8.68 -1 7.36 -1 6 C-1.66 5.67 -2.32 5.34 -3 5 C-3 4.34 -3 3.68 -3 3 C-2.01 2.67 -1.02 2.34 0 2 C0 1.34 0 0.68 0 0 Z " fill="#373737" transform="translate(238,355)"/>
<path d="M0 0 C0 0.33 0 0.66 0 1 C-2.31 1 -4.62 1 -7 1 C-7 2.32 -7 3.64 -7 5 C-11.62 5 -16.24 5 -21 5 C-20.67 4.01 -20.34 3.02 -20 2 C-13.25846717 0.74158054 -6.86515862 -0.26404456 0 0 Z " fill="#9A9297" transform="translate(186,358)"/>
<path d="M0 0 C0.12375 0.598125 0.2475 1.19625 0.375 1.8125 C0.95475985 4.26231348 0.95475985 4.26231348 3 7 C3.66 6.67 4.32 6.34 5 6 C9.22594667 4.98944754 11.23909901 4.87533515 15 7 C13.12743583 7.50904657 11.25180659 8.00682455 9.375 8.5 C8.33085938 8.7784375 7.28671875 9.056875 6.2109375 9.34375 C3.04312582 9.99118596 0.22258533 10.1161292 -3 10 C-3.33 9.34 -3.66 8.68 -4 8 C-3.22265625 6.0546875 -3.22265625 6.0546875 -2.0625 3.875 C-1.49208984 2.78832031 -1.49208984 2.78832031 -0.91015625 1.6796875 C-0.60980469 1.12539063 -0.30945313 0.57109375 0 0 Z " fill="#534C52" transform="translate(74,349)"/>
<path d="M0 0 C0.99 0.33 1.98 0.66 3 1 C2.67 1.33 2.34 1.66 2 2 C4 1.66666667 6 1.33333333 8 1 C10 0.66666667 12 0.33333333 14 0 C14.33 0.66 14.66 1.32 15 2 C12.87607494 2.6700834 10.75082476 3.33596797 8.625 4 C7.44164062 4.37125 6.25828125 4.7425 5.0390625 5.125 C2 6 2 6 0 6 C0 5.34 0 4.68 0 4 C-0.99 3.67 -1.98 3.34 -3 3 C-2.01 2.01 -1.02 1.02 0 0 Z " fill="#434041" transform="translate(457,354)"/>
<path d="M0 0 C1.09570312 0.00902344 2.19140625 0.01804687 3.3203125 0.02734375 C4.16335937 0.03894531 5.00640625 0.05054688 5.875 0.0625 C5.215 0.7225 4.555 1.3825 3.875 2.0625 C2.885 2.0625 1.895 2.0625 0.875 2.0625 C0.875 2.7225 0.875 3.3825 0.875 4.0625 C-2.755 4.0625 -6.385 4.0625 -10.125 4.0625 C-9.465 3.7325 -8.805 3.4025 -8.125 3.0625 C-8.125 2.4025 -8.125 1.7425 -8.125 1.0625 C-5.36047967 -0.31976016 -3.0788637 -0.03275387 0 0 Z " fill="#383135" transform="translate(51.125,370.9375)"/>
<path d="M0 0 C0.66 0.33 1.32 0.66 2 1 C2 1.99 2 2.98 2 4 C2.33 4.66 2.66 5.32 3 6 C5.52733235 6.65555119 5.52733235 6.65555119 8 7 C8 7.33 8 7.66 8 8 C2.72 8 -2.56 8 -8 8 C-7.01 7.01 -6.02 6.02 -5 5 C-4.01 5 -3.02 5 -2 5 C-1.34 3.35 -0.68 1.7 0 0 Z " fill="#5E5959" transform="translate(246,358)"/>
<path d="M0 0 C0 0.66 0 1.32 0 2 C1.32 2 2.64 2 4 2 C4 2.66 4 3.32 4 4 C-3.26 4 -10.52 4 -18 4 C-18 3.67 -18 3.34 -18 3 C-17.18015625 2.95101563 -16.3603125 2.90203125 -15.515625 2.8515625 C-14.43796875 2.77679688 -13.3603125 2.70203125 -12.25 2.625 C-11.18265625 2.55539062 -10.1153125 2.48578125 -9.015625 2.4140625 C-5.74696712 1.96525714 -3.1830482 0 0 0 Z " fill="#5C595A" transform="translate(289,364)"/>
<path d="M0 0 C0 0.66 0 1.32 0 2 C-4.26616316 3.13764351 -7.56486311 4 -12 4 C-11.67 3.01 -11.34 2.02 -11 1 C-7.08609399 -0.47694566 -4.00565371 -1.60226148 0 0 Z " fill="#8C888C" transform="translate(27,378)"/>
<path d="M0 0 C6.11485027 -0.09706112 11.93303301 0.22959149 18 1 C18 1.33 18 1.66 18 2 C13.05 2 8.1 2 3 2 C2.67 3.65 2.34 5.3 2 7 C0.4375 5.1875 0.4375 5.1875 -1 3 C-0.67 2.01 -0.34 1.02 0 0 Z " fill="#807D7F" transform="translate(433,329)"/>
<path d="M0 0 C0.66 1.32 1.32 2.64 2 4 C-3.0022779 11.66742597 -3.0022779 11.66742597 -7 13 C-5.35821735 8.22390502 -2.73453298 4.20617096 0 0 Z " fill="#575354" transform="translate(152,267)"/>
<path d="M0 0 C0.6875 1.6875 0.6875 1.6875 1 4 C-0.3125 6.75 -0.3125 6.75 -2 9 C-2.66 9 -3.32 9 -4 9 C-4.33 10.98 -4.66 12.96 -5 15 C-5.99 14.67 -6.98 14.34 -8 14 C-5.40358635 9.28951041 -2.81136668 4.58696668 0 0 Z " fill="#5F5C5E" transform="translate(195,195)"/>
<path d="M0 0 C0.33 0 0.66 0 1 0 C0.8794926 6.14587738 0.8794926 6.14587738 -1.625 8.578125 C-3.37787717 9.80796624 -5.13740456 10.94469135 -7 12 C-7.66 11.67 -8.32 11.34 -9 11 C-7.1875 9 -7.1875 9 -5 7 C-4.01 7 -3.02 7 -2 7 C-2.33 6.01 -2.66 5.02 -3 4 C-2.01 4 -1.02 4 0 4 C0 2.68 0 1.36 0 0 Z " fill="#666165" transform="translate(482,343)"/>
<path d="M0 0 C1.4535556 2.90711121 0.71133997 4.89597103 0 8 C-1.89353366 9.89353366 -3.84526801 11.4198632 -6 13 C-6 9.32965255 -4.9247108 7.9000569 -3 4.8125 C-2.443125 3.91144531 -1.88625 3.01039063 -1.3125 2.08203125 C-0.6628125 1.05142578 -0.6628125 1.05142578 0 0 Z " fill="#4F4C4D" transform="translate(189,258)"/>
<path d="M0 0 C0.33 1.32 0.66 2.64 1 4 C0.34 4 -0.32 4 -1 4 C-0.67 4.99 -0.34 5.98 0 7 C-1.3125 9.1875 -1.3125 9.1875 -3 11 C-3.66 11 -4.32 11 -5 11 C-5 11.99 -5 12.98 -5 14 C-5.66 14 -6.32 14 -7 14 C-5.23570801 9.02790438 -2.6060834 4.56561939 0 0 Z " fill="#544C4C" transform="translate(141,235)"/>
<path d="M0 0 C0.66 0.99 1.32 1.98 2 3 C1.34 3 0.68 3 0 3 C0.33 3.99 0.66 4.98 1 6 C-0.375 7.5 -0.375 7.5 -2 9 C-2.66 9 -3.32 9 -4 9 C-4.33 10.65 -4.66 12.3 -5 14 C-5.66 14 -6.32 14 -7 14 C-5.53967505 8.68972746 -3.01679014 4.53669968 0 0 Z " fill="#595555" transform="translate(161,201)"/>
<path d="M0 0 C1.3921875 0.0928125 1.3921875 0.0928125 2.8125 0.1875 C2.8125 0.5175 2.8125 0.8475 2.8125 1.1875 C4.4625 1.5175 6.1125 1.8475 7.8125 2.1875 C7.8125 2.5175 7.8125 2.8475 7.8125 3.1875 C3.1925 3.1875 -1.4275 3.1875 -6.1875 3.1875 C-3.1875 0.1875 -3.1875 0.1875 0 0 Z " fill="#2C2628" transform="translate(64.1875,367.8125)"/>
<path d="M0 0 C0.99 1.32 1.98 2.64 3 4 C1.625 5.5 1.625 5.5 0 7 C-0.66 7 -1.32 7 -2 7 C-2.33 7.99 -2.66 8.98 -3 10 C-3.66 10 -4.32 10 -5 10 C-3.66511872 6.40608886 -2.03977277 3.24509304 0 0 Z " fill="#454444" transform="translate(179,222)"/>
<path d="M0 0 C0.71484375 1.703125 0.71484375 1.703125 1 4 C-0.43359375 6.359375 -0.43359375 6.359375 -2.4375 8.75 C-3.42556641 9.94882813 -3.42556641 9.94882813 -4.43359375 11.171875 C-5.20896484 12.07679688 -5.20896484 12.07679688 -6 13 C-6 9.32965255 -4.9247108 7.9000569 -3 4.8125 C-2.443125 3.91144531 -1.88625 3.01039063 -1.3125 2.08203125 C-0.6628125 1.05142578 -0.6628125 1.05142578 0 0 Z " fill="#514C4C" transform="translate(201,134)"/>
<path d="M0 0 C0 0.66 0 1.32 0 2 C-3.54950034 3.16306443 -6.55823948 2.92365049 -10.25 2.5625 C-11.32765625 2.46066406 -12.4053125 2.35882813 -13.515625 2.25390625 C-14.33546875 2.17011719 -15.1553125 2.08632813 -16 2 C-16 1.67 -16 1.34 -16 1 C-10.65097076 0.40801257 -5.39115154 -0.14187241 0 0 Z " fill="#686667" transform="translate(230,340)"/>
<path d="M0 0 C2.97 0.495 2.97 0.495 6 1 C5.34 2.32 4.68 3.64 4 5 C1.525 4.01 1.525 4.01 -1 3 C-0.67 2.01 -0.34 1.02 0 0 Z " fill="#343233" transform="translate(457,332)"/>
<path d="M0 0 C0.33 0.66 0.66 1.32 1 2 C0.0625 4.625 0.0625 4.625 -1 7 C-1.66 7 -2.32 7 -3 7 C-3.33 8.32 -3.66 9.64 -4 11 C-4.66 10.34 -5.32 9.68 -6 9 C-4.02 6.03 -2.04 3.06 0 0 Z " fill="#636161" transform="translate(175,281)"/>
<path d="M0 0 C2.475 0.495 2.475 0.495 5 1 C5 5 5 5 4 8 C2 5 2 5 2 2 C1.34 2 0.68 2 0 2 C0 1.34 0 0.68 0 0 Z " fill="#514F50" transform="translate(330,218)"/>
<path d="M0 0 C1.67542976 0.28604898 3.34385343 0.61781233 5 1 C1.96474514 3.02350324 0.80573798 3.32124018 -2.6875 3.625 C-3.49574219 3.69976562 -4.30398437 3.77453125 -5.13671875 3.8515625 C-5.75160156 3.90054687 -6.36648437 3.94953125 -7 4 C-6.67 3.01 -6.34 2.02 -6 1 C-4.7934375 1.0309375 -4.7934375 1.0309375 -3.5625 1.0625 C-1.06645115 1.29633621 -1.06645115 1.29633621 0 0 Z " fill="#595759" transform="translate(84,354)"/>
<path d="M0 0 C1 2 1 2 0.25 5.0625 C-0.1625 6.031875 -0.575 7.00125 -1 8 C-1.99 8.33 -2.98 8.66 -4 9 C-2.94124926 5.59687262 -1.99097846 2.98646769 0 0 Z " fill="#666164" transform="translate(116,278)"/>
<path d="M0 0 C0.99 1.32 1.98 2.64 3 4 C-0.75 7 -0.75 7 -3 7 C-1.125 2.25 -1.125 2.25 0 0 Z " fill="#545253" transform="translate(188,155)"/>
<path d="M0 0 C1 2 1 2 1 6 C-1 7.75 -1 7.75 -3 9 C-3.66 8.67 -4.32 8.34 -5 8 C-3.35 5.36 -1.7 2.72 0 0 Z " fill="#5D595A" transform="translate(111,287)"/>
</svg>
